<svg xmlns="http://www.w3.org/2000/svg" width="29.276" height="29.843" viewBox="0 0 29.276 29.843">
  <path id="Icon_ionic-logo-google" data-name="Icon ionic-logo-google" d="M32.76,16l-.151-.639H18.725v5.877H27.02c-.861,4.09-4.858,6.243-8.123,6.243a9.714,9.714,0,0,1-6.537-2.6,9.332,9.332,0,0,1-2.784-6.587,9.625,9.625,0,0,1,2.734-6.58A9.3,9.3,0,0,1,18.8,9.173a8.47,8.47,0,0,1,5.525,2.153l4.176-4.155a14.776,14.776,0,0,0-9.838-3.789h0A15.208,15.208,0,0,0,7.9,7.759,15.147,15.147,0,0,0,3.656,18.3,14.994,14.994,0,0,0,7.739,28.669a15.576,15.576,0,0,0,11.23,4.556,13.852,13.852,0,0,0,10.089-4.241,14.9,14.9,0,0,0,3.875-10.318A17.181,17.181,0,0,0,32.76,16Z" transform="translate(-3.656 -3.382)" fill="#ffe900"/>
</svg>
