<svg xmlns="http://www.w3.org/2000/svg" width="30.553" height="30.546" viewBox="0 0 30.553 30.546">
  <path id="Icon_awesome-instagram" data-name="Icon awesome-instagram" d="M15.275,9.679a7.832,7.832,0,1,0,7.832,7.832A7.819,7.819,0,0,0,15.275,9.679Zm0,12.923a5.092,5.092,0,1,1,5.092-5.092A5.1,5.1,0,0,1,15.275,22.6ZM25.253,9.359a1.827,1.827,0,1,1-1.827-1.827A1.822,1.822,0,0,1,25.253,9.359Zm5.187,1.854a9.04,9.04,0,0,0-2.467-6.4,9.1,9.1,0,0,0-6.4-2.467c-2.522-.143-10.081-.143-12.6,0a9.086,9.086,0,0,0-6.4,2.461A9.07,9.07,0,0,0,.1,11.206c-.143,2.522-.143,10.081,0,12.6a9.04,9.04,0,0,0,2.467,6.4,9.111,9.111,0,0,0,6.4,2.467c2.522.143,10.081.143,12.6,0a9.04,9.04,0,0,0,6.4-2.467,9.1,9.1,0,0,0,2.467-6.4c.143-2.522.143-10.074,0-12.6Zm-3.258,15.3a5.155,5.155,0,0,1-2.9,2.9c-2.011.8-6.782.613-9,.613s-7,.177-9-.613a5.155,5.155,0,0,1-2.9-2.9c-.8-2.011-.613-6.782-.613-9s-.177-7,.613-9a5.155,5.155,0,0,1,2.9-2.9c2.011-.8,6.782-.613,9-.613s7-.177,9,.613a5.155,5.155,0,0,1,2.9,2.9c.8,2.011.613,6.782.613,9S27.98,24.511,27.182,26.515Z" transform="translate(0.005 -2.238)" fill="#ffe900"/>
</svg>
