<svg xmlns="http://www.w3.org/2000/svg" width="25" height="25" viewBox="0 0 25 25">
  <path id="Union_1" data-name="Union 1" d="M-926.742-501.854a4.034,4.034,0,0,1-2.409-.761,2.9,2.9,0,0,1-1.2-2.364v-18.75a2.9,2.9,0,0,1,1.2-2.364,4.034,4.034,0,0,1,2.409-.761h17.778a4.034,4.034,0,0,1,2.409.761,2.9,2.9,0,0,1,1.2,2.364v18.75a2.9,2.9,0,0,1-1.2,2.364,4.034,4.034,0,0,1-2.409.761Zm-1.944-21.875v18.75c0,.922,1,1.421,1.944,1.421h17.778c.943,0,1.945-.5,1.945-1.421v-18.75c0-.922-1-1.421-1.945-1.421h-17.778C-927.685-525.149-928.687-524.651-928.687-523.729Zm10,14.773v-4.261h-4.167a.843.843,0,0,1-.833-.852.843.843,0,0,1,.833-.852h4.167v-4.829a.843.843,0,0,1,.834-.852.843.843,0,0,1,.833.852v4.829h4.167a.843.843,0,0,1,.833.852.843.843,0,0,1-.833.852h-4.167v4.261a.843.843,0,0,1-.833.852A.843.843,0,0,1-918.687-508.956Z" transform="translate(930.353 526.854)" fill="#3f2a56"/>
</svg>
