<svg id="Component_8_1" data-name="Component 8 – 1" xmlns="http://www.w3.org/2000/svg" width="24.591" height="24.591" viewBox="0 0 24.591 24.591">
  <path id="Path_826" data-name="Path 826" d="M16.1,12A4.1,4.1,0,1,1,12,16.1,4.1,4.1,0,0,1,16.1,12Zm0,6.148A2.049,2.049,0,1,0,14.049,16.1,2.052,2.052,0,0,0,16.1,18.148Z" transform="translate(-3.803 -3.803)" fill="#3f2a56"/>
  <path id="Path_827" data-name="Path 827" d="M12.378,24.591A3.077,3.077,0,0,1,9.3,21.517V21.44a.662.662,0,0,0-.436-.6l-.06-.024a.666.666,0,0,0-.731.13L8.02,21a3.075,3.075,0,1,1-4.348-4.349l.056-.056a.663.663,0,0,0,.13-.731l0-.01a.666.666,0,0,0-.608-.4H3.074a3.074,3.074,0,0,1,0-6.148h.078a.662.662,0,0,0,.6-.436q.011-.03.024-.06a.663.663,0,0,0-.13-.731L3.589,8.02A3.075,3.075,0,1,1,7.938,3.672l.056.056a.666.666,0,0,0,.731.13,1.025,1.025,0,0,1,.2-.066.666.666,0,0,0,.292-.547V3.074a3.074,3.074,0,1,1,6.148,0v.089a.666.666,0,0,0,.4.608l.01,0a.666.666,0,0,0,.731-.13l.057-.057A3.075,3.075,0,1,1,20.92,7.938l-.056.056a.663.663,0,0,0-.13.731,1.025,1.025,0,0,1,.066.2.666.666,0,0,0,.547.292h.171a3.074,3.074,0,1,1,0,6.148h-.089a.666.666,0,0,0-.608.4l0,.01a.663.663,0,0,0,.13.731l.057.057a3.075,3.075,0,1,1-4.349,4.348l-.056-.056a.666.666,0,0,0-.732-.13l-.01,0a.666.666,0,0,0-.4.608v.171A3.077,3.077,0,0,1,12.378,24.591ZM9.606,18.928A2.7,2.7,0,0,1,11.353,21.4q0,.012,0,.024v.092a1.025,1.025,0,1,0,2.049,0v-.174s0,0,0,0A2.727,2.727,0,0,1,18.033,19.4l.008.008.061.061a1.026,1.026,0,1,0,1.451-1.45l-.062-.062-.008-.008a2.729,2.729,0,0,1,1.937-4.631h.1a1.025,1.025,0,1,0,0-2.049h-.178a2.714,2.714,0,0,1-2.485-1.646,1.024,1.024,0,0,1-.074-.27,2.7,2.7,0,0,1,.622-2.8l.008-.008.061-.061a1.026,1.026,0,1,0-1.45-1.451l-.062.062-.008.008A2.729,2.729,0,0,1,13.32,3.17s0,0,0,0V3.074a1.025,1.025,0,1,0-2.049,0v.174s0,0,0,0A2.714,2.714,0,0,1,9.625,5.737a1.025,1.025,0,0,1-.27.074,2.716,2.716,0,0,1-2.8-.622L6.55,5.182,6.489,5.12a1.026,1.026,0,1,0-1.451,1.45l.062.062.008.008a2.7,2.7,0,0,1,.556,2.965A2.7,2.7,0,0,1,3.19,11.353H3.074a1.025,1.025,0,0,0,0,2.049h.178A2.729,2.729,0,0,1,5.19,18.033l-.008.008L5.12,18.1a1.026,1.026,0,1,0,1.45,1.451l.062-.062.008-.008a2.715,2.715,0,0,1,2.965-.556Z" fill="#3f2a56"/>
</svg>
