<svg id="g8" xmlns="http://www.w3.org/2000/svg" width="137.388" height="183.205" viewBox="0 0 137.388 183.205">
  <g id="g10" transform="translate(0)">
    <path id="path14" d="M1319.292-4468.717a56.571,56.571,0,0,1-7.413-20.288,57.756,57.756,0,0,1,1.542-24.559c1.345-4.744,4.546-15.521,14.333-24.793,10.864-10.292,23.373-12.6,30.109-13.851a67.657,67.657,0,0,1,16.486-.978,65.2,65.2,0,0,1,15.018,2.73,53.562,53.562,0,0,1,18.536,9.431,51.249,51.249,0,0,1,14.469,18.539,54.328,54.328,0,0,1,4.425,16.282,65.662,65.662,0,0,1-.647,22.179c-1.309,6.12-3.234,15.2-10.348,23.183-8.159,9.161-18.525,11.715-27.661,13.967a71.344,71.344,0,0,1-29.858,1.431c-5.808-.986-25.185-4.277-36.712-19.853-1.042-1.407-1.806-2.626-2.281-3.42" transform="translate(-1309.891 4554.628)" fill="#e2e2e2"/>
    <path id="path18" d="M1521.156-4224.2c2-4.752,3.786-8.849,5.248-12.144.9-2.038,3.669-8.241,7.494-16.316.741-1.564,1.363-2.864,1.8-3.768a29.909,29.909,0,0,1-2.117-7.19,29,29,0,0,1,3.04-17.912c.873-1.846,1.806-3.342,3.472-3.995.436-.171,1.838-.644,5.145.51.966.336,4.947,1.807,10.546,7.319,1.493,1.47,2.629,2.763,3.36,3.632a54.151,54.151,0,0,1,8.173-.751,41.055,41.055,0,0,1,12.314,1.348,36.761,36.761,0,0,1,4.967,1.774c3.719-2,6.981-3.549,9.553-4.7,4.55-2.029,6.967-2.819,9.94-2.983,3.607-.2,5.187.681,5.889,1.159a8.286,8.286,0,0,1,2.894,3.911c1.028,2.422,1.145,4.7.831,9a67.687,67.687,0,0,1-1.466,11.188,65.865,65.865,0,0,1-3.782,11.6c.533,1.518,1.037,3.137,1.489,4.854a60.192,60.192,0,0,1,2.036,13.452c.076,8.591-3.328,15.96-5.546,19.949l-85.278-19.938" transform="translate(-1509.931 4299.695)" fill="#fea726"/>
    <path id="path20" d="M1534.084-3121.357a3.853,3.853,0,0,1,2.3-.911c1.328-.017,2.028.848,3.757,1.917a14.042,14.042,0,0,0,4.755,1.994,10.412,10.412,0,0,0,5.292-.691c3.3-1.091,3.707-2.418,6.672-3.3a14.351,14.351,0,0,1,5.062-.46,21.737,21.737,0,0,1,9.739,2.914,30.506,30.506,0,0,1,6.518,5.445c2.382,2.375,2.138,2.6,3.451,3.758,4.237,3.745,9.768,4.087,11.887,4.218a27.981,27.981,0,0,0,10.89-1.61c2.177-.834,3.375-1.665,5.981-1.994a13.778,13.778,0,0,1,6.365.614,12.623,12.623,0,0,1,3.988,2.377,29.086,29.086,0,0,1-2.5,10.217,29.188,29.188,0,0,1-7.547,10.106c-2.067.669-4.83,1.5-8.129,2.3a110.13,110.13,0,0,1-17.012,2.8c-5.874.462-12.74,1-21.451-.716a47.825,47.825,0,0,1-16.863-6.089,31.68,31.68,0,0,1-11.035-10.147,24.222,24.222,0,0,1-3.921-10.049,23.732,23.732,0,0,1,1.8-12.692" transform="translate(-1520.327 3191.625)" fill="#fff"/>
    <path id="path22" d="M2074.148-2692.579a2.406,2.406,0,0,0-1.265-1.3,2.759,2.759,0,0,0-2.53.575,4.353,4.353,0,0,0-1.431,2.224,5.5,5.5,0,0,0-.417,3.732,4.821,4.821,0,0,0,2.115,2.675c.286.17,2.3,1.322,3.95.376a3.741,3.741,0,0,0,1.536-2.067c.507-1.354.073-2.038.437-3.648a7.428,7.428,0,0,1,.918-2.239,2.835,2.835,0,0,0-1.548-.7,2.838,2.838,0,0,0-1.763.377" transform="translate(-2031.289 2783.025)" fill="#6d3874"/>
    <path id="path24" d="M2082.469-3075.166h0a9.2,9.2,0,0,1-1.906-3.08,4.391,4.391,0,0,1-.028-3.023,3.484,3.484,0,0,1,2.1-2.1c.642-.156.864.092,3.068.887,2.18.786,2.684.8,3.34,1.488a2.828,2.828,0,0,1,.9,1.817,3.118,3.118,0,0,1-.972,2.1,5.873,5.873,0,0,1-3.983,2.212,11.969,11.969,0,0,1-2.519-.3" transform="translate(-2042.674 3154.052)" fill="#5f2167"/>
    <path id="path26" d="M2497.108-3533.343c0,1.8-2.312,3.263-5.164,3.263s-5.164-1.461-5.164-3.263,2.312-3.262,5.164-3.262,5.164,1.46,5.164,3.262" transform="translate(-2430.006 3585.87)" fill="#fff"/>
    <path id="path28" d="M2008.8-3613.541c-.229,1.787-2.5,2.969-5.074,2.638s-4.472-2.047-4.243-3.835,2.5-2.968,5.074-2.637,4.472,2.048,4.243,3.834" transform="translate(-1965.676 3662.883)" fill="#fff"/>
    <path id="path30" d="M3072.034-4009.289a23.5,23.5,0,0,0,5.21-3.368c2.221-1.906,3.008-3.341,5.117-3.79a4.457,4.457,0,0,1,3.579.563c.665.524,1.228,1.433,1.407,3.835a20.317,20.317,0,0,1-.963,7.5c-.807,2.779-1.779,5.907-2.949,9.319-1.228-1.96-2.3-3.606-3.119-4.857-3.591-5.456-4.163-5.872-4.806-6.186-1.369-.67-3.185-.946-3.492-2.2a1.674,1.674,0,0,1,.016-.813" transform="translate(-2987.596 4043.217)" fill="#5f2167"/>
    <path id="path32" d="M1891.079-4125.167a1.015,1.015,0,0,0,.561-.217c.9-.759-.287-3.067-1.028-6.071-.259-1.05-1.7-6.894.261-8.117a2.417,2.417,0,0,1,1.687-.153c1.5.231,2.478,1.3,3.477,2.509a53.468,53.468,0,0,1,4.077,5.676l-9.035,6.374" transform="translate(-1861.243 4160.616)" fill="#6d3874"/>
    <path id="path34" d="M1698.569-2484.95s-.007.019-.02.053c0,0-.731,1.974-1.267,3.919-1.018,3.7-1.683,6.107-1.574,9.2.079,2.245.511,3.354-.071,5.409a10.014,10.014,0,0,1-1.363,2.893,17.276,17.276,0,0,0-2.792,3.4,17.68,17.68,0,0,0-1.832,3.95c-.8,2.463-2.139,6.623-.277,9.767a25.688,25.688,0,0,0,3.523,3.729,23.919,23.919,0,0,1,.764,2.8c.3,1.711-.2,2.247-.268,4.273a13.41,13.41,0,0,0,.465,3.914,14.638,14.638,0,0,0-2.958,2.216,7.482,7.482,0,0,0-2.3,3.067,5.882,5.882,0,0,0,.888,5.086c.292.4,1.429,1.838,5.883,2.65a15.329,15.329,0,0,0,5.889.053,17.484,17.484,0,0,1,5.592-.069c2.782.371,5.116,1.13,6.441-.2a3.025,3.025,0,0,0,.788-1.7,8.289,8.289,0,0,0,1.819,2.209c2.165,1.838,4.644,1.915,9.206,1.989,3.589.058,6.948.08,11.04-1.427a24.343,24.343,0,0,0,3.743-1.752,6.643,6.643,0,0,0,2.086,1.308,7.483,7.483,0,0,0,5.662-.283,7.651,7.651,0,0,0,3.387,3.181,8.3,8.3,0,0,0,7.206-.42,37.193,37.193,0,0,0,8.722-.879c4.821-1.077,5.9-2.355,6.351-3.051a6.148,6.148,0,0,0,.859-3.8,16.13,16.13,0,0,0,3.626-3.49,19.593,19.593,0,0,0,3.5-10.187,27.2,27.2,0,0,0,.106-4.873,23.676,23.676,0,0,0,6.9-2.9c2.466-1.543,4.949-3.1,5.828-5.982.46-1.51.279-2.72-.068-4.86a28.684,28.684,0,0,0-3-8.827c-1.82-4.555-3.422-8.374-4.65-11.244a113,113,0,0,0-6.392-13.346,51.993,51.993,0,0,0-4.42-6.507c-1.25-1.562-2.393-2.8-3.253-3.684a45.665,45.665,0,0,1-7.055,4.294,45.623,45.623,0,0,1-4.294,1.841,5.281,5.281,0,0,1,1.073,3.681,5.32,5.32,0,0,1-1.84,3.221c-2.971,2.838-7.553,3.47-10.429,3.834-7.523.954-11.285,1.43-13.8,1.534-6.886.283-10.776.443-15.952-.153-11.659-1.344-20.748-5.478-21.473-3.835" transform="translate(-1669.246 2597.56)" fill="#fff"/>
    <path id="path36" d="M2037.061-2821.782h0a12.422,12.422,0,0,0,.855,3.161,12.411,12.411,0,0,0,1.684,2.867,3.757,3.757,0,0,1,1.577-1.094,3.955,3.955,0,0,1,2.282-.077,4.405,4.405,0,0,1,.958.345c.184,0,.479,0,.844,0a6.56,6.56,0,0,1,2.032.076,2.4,2.4,0,0,1,1.055.748,4.952,4.952,0,0,0,1.563-2.218,4.929,4.929,0,0,0,.221-2.288,6.469,6.469,0,0,1-2.569.288,7.385,7.385,0,0,1-4.064-1.879,9.431,9.431,0,0,1-1.726-1.86l-4.71,1.93" transform="translate(-2001.5 2906.605)" fill="#5f2167"/>
    <path id="path38" d="M2117.1-3053.177c-.13.469-1.1.611-2.157.316s-1.815-.915-1.684-1.384,1.1-.61,2.157-.315,1.815.914,1.684,1.384" transform="translate(-2074.088 3126.711)" fill="#fff"/>
    <path id="path40" d="M1802.652-2383.128a5.164,5.164,0,0,0-.716,3.664c.139.592.665,2.192,3.535,3.661,9.488,4.859,28.063,5.384,28.063,5.384,20.186.57,9.844-1.184,26.71-1.827,1.438-.055,4.655-.162,6.888-2.444,2.082-2.128,2.307-5.124,2.3-6.71a53.876,53.876,0,0,1-7.367,2.6c-2.842.778-6.023,1.4-14.417,1.994-7.864.559-11.8.839-16.719.613a70.477,70.477,0,0,1-14.571-1.84,62.841,62.841,0,0,1-13.7-5.1" transform="translate(-1777.368 2486.803)" fill="#ffe900"/>
    <path id="path42" d="M2087.232-1593.02a2.518,2.518,0,0,0-1.135.249,2.894,2.894,0,0,0-1.372,1.692,4.57,4.57,0,0,0,.016,2.767c.252,1.134.445,2,1.115,2.313a10.251,10.251,0,0,0,1.9.279c.269.037.489.069.629.09a2.579,2.579,0,0,0,2.018-.176,2.733,2.733,0,0,0,.972-1.24,6.23,6.23,0,0,0,.7-2.871c-.011-.879-.024-2-.781-2.574a2.538,2.538,0,0,0-1.265-.375,15.221,15.221,0,0,0-2.8-.152" transform="translate(-2046.713 1733.975)" fill="#ffe900"/>
    <path id="path44" d="M2359.727-2092.928a30.1,30.1,0,0,0-2.573,3.805,26.961,26.961,0,0,0-2.914,7.073,21.616,21.616,0,0,0,.886,11.975,58.7,58.7,0,0,1,2.155-7.254c1.618-4.388,2.943-7.982,6.121-11.31a21.634,21.634,0,0,1,5.7-4.252l-9.379-.037" transform="translate(-2303.256 2210.292)" fill="#ffe900"/>
    <path id="path46" d="M3537.111-1337.332a17.8,17.8,0,0,0,5.146,2.15,18.391,18.391,0,0,0,8.812-.105,21.341,21.341,0,0,0,9.663-5.368,18.5,18.5,0,0,0,4.637-6.673,17.857,17.857,0,0,0,1.191-8.2,17.4,17.4,0,0,0-1.125-4.7,15.973,15.973,0,0,1-4.959,12.372c-4.052,3.691-9.062,3.852-11.452,3.937a21.7,21.7,0,0,1-8.231-1.33l-3.681,7.925" transform="translate(-3430.792 1512.163)" fill="#fff"/>
    <path id="path48" d="M2976.223-1895.483c1.458-1.523,3.178-.42,6.647-1.842,2.5-1.026,4.241-2.866,7.72-6.544,1.839-1.945,3.234-3.648,4.141-4.806a13.593,13.593,0,0,1,3.067,1.733,13.574,13.574,0,0,1,2.966,3.073,13.123,13.123,0,0,1-2.5,4.6c-1.637,1.919-2.754,2.021-7.7,5.094-3.856,2.4-3.852,2.754-6.056,3.767-1.154.53-1.968.805-4.975,2.094-1.426.611-2.59,1.126-3.358,1.469-1.166-3.5-1.632-6.879.051-8.638" transform="translate(-2895.314 2034.731)" fill="#ffe900"/>
    <path id="path50" d="M3608.645-1552.57a15.782,15.782,0,0,0,3.221,1.329,17.131,17.131,0,0,0,10.276-.409,17.749,17.749,0,0,0,5.931-3.374,14.851,14.851,0,0,0,3.937-5.164,16.353,16.353,0,0,0,1.278-6.186,18.09,18.09,0,0,0-.409-5.828,14.5,14.5,0,0,0-1.687-4.243,13.874,13.874,0,0,0-5.846-5.177,16.261,16.261,0,0,1-1.517,5.177,16.916,16.916,0,0,1-8.385,7.925,16.4,16.4,0,0,1-3.937,1.125c.017.744.017,1.741-.051,2.914a35.527,35.527,0,0,1-1.074,6.9,34.157,34.157,0,0,1-1.738,5.011" transform="translate(-3498.951 1723.106)" fill="#fc9b28"/>
    <path id="path52" d="M2984.353-1477.3q.127-.96.254-1.921.166.573.359,1.155c.768-.343,1.932-.858,3.358-1.469l.292-.125q-2.013,1.12-4.264,2.361" transform="translate(-2904.107 1625.955)" fill="#ccc"/>
    <path id="path54" d="M2990.1-1851.729q-.194-.58-.359-1.155l.185-1.4a9.7,9.7,0,0,0,.788-5.957h3.375a1.648,1.648,0,0,0-.69,1.151,1.505,1.505,0,0,0,.536,1.227.991.991,0,0,0,.62.189c.882,0,2.313-.776,4.595-2.106a64.906,64.906,0,0,0,5.981-3.681c2.184-1.733,3.788-3.036,4.831-5.368a10.818,10.818,0,0,0,.844-2.991,4.263,4.263,0,0,1,2.685,2.454,3.146,3.146,0,0,1,.076,1.457,7.164,7.164,0,0,1-2.455,3.672,29.992,29.992,0,0,0-4.568,3.274c-6.968,4.4-8.238,5.093-8.238,5.093-1.387.78-2.909,1.632-4.555,2.547l-.292.125c-1.427.611-2.591,1.126-3.359,1.469" transform="translate(-2909.24 1999.616)" fill="#cfbd00"/>
    <path id="path56" d="M3446.152-1044.194a4.64,4.64,0,0,0,2.03-1.647,6.147,6.147,0,0,0,.858-3.8,16.362,16.362,0,0,0,3.006-2.718q-.529,1.139-1.058,2.277c-.521.481-.993.868-1.364,1.16a4.529,4.529,0,0,1-.46,2.571,4.742,4.742,0,0,1-3.013,2.155m8.91-12.315c-.138-.044-.272-.087-.4-.131.123-.3.235-.6.338-.89.083.05.19.113.318.185q-.118.4-.255.837" transform="translate(-3344.123 1223.736)" fill="#a6a6e3"/>
    <path id="path58" d="M3073.114-1692.722q-1.308,0-2.709-.042a6.743,6.743,0,0,1-.716-5.113,6.167,6.167,0,0,1,2.454-3.476,6.1,6.1,0,0,1,3.389-1.023h.087c-.936-6.559-1.673-12.245-2.351-17.178-.265-1.926-.717-5.172,1.227-7.362a5.917,5.917,0,0,1,2.556-1.636,28.257,28.257,0,0,1,1.943-2.761c.53-.663,1.075-1.284,1.63-1.865,4.8-2.967,5.905-3.089,7.522-4.985a12.269,12.269,0,0,0,.854-1.128q.32-.159.629-.3a28.559,28.559,0,0,1,4.6,7.771c1.084,2.78,1.032,4,2.557,15.542.107.809.2,1.5.278,2.1q-.548,3.348-1.1,6.7l.109.066c-.1.294-.215.592-.338.89q-.285-.1-.538-.189l-2.077,4.472a16.381,16.381,0,0,1-3.006,2.718,6.147,6.147,0,0,1-.859,3.8,4.642,4.642,0,0,1-2.03,1.647,25.387,25.387,0,0,1-4.452.81,83.351,83.351,0,0,1-9.663.554" transform="translate(-2985.2 1873.627)" fill="#cccce3"/>
    <path id="path60" d="M3548.685-1035.928q.528-1.139,1.058-2.277l2.077-4.472c.168.062.348.125.538.189.128.044.262.087.4.131-.289.907-.648,1.9-1.1,2.965a19.235,19.235,0,0,1-2.976,3.464" transform="translate(-3441.82 1209.583)" fill="#cccce3"/>
    <path id="path62" d="M3306.112-1727.03c.617-.647,1.247-1.244,1.88-1.8l1.041-.658a25.718,25.718,0,0,0,3.527-2.616c.667-.391,1.313-.736,1.928-1.042a12.338,12.338,0,0,1-.854,1.128c-1.617,1.9-2.727,2.018-7.522,4.985" transform="translate(-3210.69 1867.478)" fill="#3182da"/>
    <path id="path64" d="M3611.778-1049.809c.449-1.062.809-2.058,1.1-2.965.092-.288.176-.567.255-.837.119.067.259.143.414.224a15.271,15.271,0,0,1-1.766,3.578" transform="translate(-3501.937 1220)" fill="#ca7c37"/>
    <path id="path66" d="M3345.966-1707.775a29.958,29.958,0,0,1,4.568-3.274,25.683,25.683,0,0,1-3.527,2.616l-1.041.659" transform="translate(-3248.663 1846.427)" fill="#2768b3"/>
    <path id="path68" d="M3270.206-2375.038a35.541,35.541,0,0,0-1.415-6.8c-1.69-5.388-2.536-8.082-4.805-10.327-.706-.7-2.164-1.966-1.943-3.374.135-.861.768-.956.92-1.841.256-1.495-1.256-2.943-2.454-4.09-1.863-1.784-2.581-2.1-2.965-2.147a2.673,2.673,0,0,1-.92-.154c-1.027-.45-1.33-1.814-1.457-2.3-.653-2.5-1.974-2.239-3.835-6.135a11.785,11.785,0,0,1-1.533-6.442,13.271,13.271,0,0,0,.459-2.147,10.833,10.833,0,0,0-.6-2.7,36.934,36.934,0,0,0,7.186-4.2c.95.45,1.641,1.769,3.152,4.748,2.477,4.884,1.753,2.417,4.908,8.589,1.135,2.22,2.918,5.729,4.908,10.583,2.785,6.794,1.865,6.341,4.448,12.731,2.406,5.95,3.594,7.35,3.017,9.714-.767,3.137-3.941,5.078-6.511,6.21q-.271.042-.561.075" transform="translate(-3156.9 2529.261)" fill="#cccce3"/>
    <path id="path70" d="M2580.034-780.871a22.509,22.509,0,0,0,5.728-1.3c.553-.2,1.065-.415,1.535-.625a16.227,16.227,0,0,1-7.262,1.927" transform="translate(-2518.861 961.962)" fill="#a6a6e3"/>
    <path id="path72" d="M2372.309-2142.774a34.542,34.542,0,0,1-9.008-1.332,21.545,21.545,0,0,0,3.546.3,13.6,13.6,0,0,0,9.26-3.138,15.563,15.563,0,0,0,3.528-5.445,35.119,35.119,0,0,0,2.889-11.4c1.351-10.75,1.52-7.444,2.556-16.872,1.717-15.622.467-17.538-.716-18.507a6.869,6.869,0,0,0-4.407-1.365,12.155,12.155,0,0,0-4.386.854c-5.056,2.046-6.965,7.777-7.438,7.778a.059.059,0,0,1-.027-.006c-.377-.213.859-3.76,3.17-7.26,1.927-2.917,4.161-6.3,8.385-7.668a10.842,10.842,0,0,1,3.415-.531c1.107,0,2.1.143,3.027.224.586.052,1.212.082,1.877.082,3.937,0,9.272-1.064,16.119-5.093a25.4,25.4,0,0,0,1.023,4.5,20.328,20.328,0,0,0,3.885,7.464,17.21,17.21,0,0,0,1.841,1.84,19.468,19.468,0,0,1-3.221,5.318h0c-.482.509-.93.983-1.352,1.424a22.457,22.457,0,0,1-12.875,5.694,8.58,8.58,0,0,1,.3.889,2.9,2.9,0,0,0-.44.378c-1.39,1.453-1.314,4.013-.589,6.83a14.446,14.446,0,0,1-.74,1.247,139.448,139.448,0,0,1-4.193,19.632c-2.193,7.536-3.414,9.3-4.7,10.532a11.5,11.5,0,0,1-2.249,1.675c-.47.21-.982.422-1.535.625a22.519,22.519,0,0,1-5.728,1.3c-.408.02-.814.029-1.215.029" transform="translate(-2312.351 2323.895)" fill="#cccce3"/>
    <path id="path74" d="M2975.632-1791.567c-.726-2.817-.8-5.377.589-6.83a2.863,2.863,0,0,1,.44-.379q.068.246.123.5-.394,2.978-.788,5.957c-.119.266-.241.516-.364.747m13.6-13.791c.421-.442.869-.915,1.351-1.425h0a18.877,18.877,0,0,1-1.351,1.425" transform="translate(-2895.312 1937.644)" fill="#3182da"/>
    <path id="path76" d="M2993.659-1620.373q.394-2.978.788-5.957h0a9.7,9.7,0,0,1-.788,5.957" transform="translate(-2912.976 1765.703)" fill="#2768b3"/>
    <path id="path78" d="M1927.474-1209.441a34.9,34.9,0,0,1-4.222-.257c3.252-.682,4.255-1.865,4.6-2.76.99-2.555-2.466-5.084-4.218-11.043a22.956,22.956,0,0,1-.921-6.135l13.651,15.874-1.534,3.528a34.4,34.4,0,0,1-3.835.613,34.447,34.447,0,0,1-3.524.18" transform="translate(-1892.548 1387.724)" fill="#cccce3"/>
    <path id="path80" d="M3243.205-2862.652a29.064,29.064,0,0,0,5.46-8.118,28.971,28.971,0,0,0,2.226-7.589,38.855,38.855,0,0,0,1.64-7.193,32.819,32.819,0,0,1-.318,7.532c-.4,2.287-1.871,8.6-8.727,15.238l-.28.131" transform="translate(-3150.75 2965.528)" fill="#2c7bc7"/>
    <path id="path82" d="M3297.528-3331.41c.148-.985.229-1.87.273-2.627a12.625,12.625,0,0,0-3.987-2.377,11.158,11.158,0,0,0-1.662-.459c3.9-10.6,3.131-22.08,2.966-24.158q.613,2.147,1.227,4.3a65.479,65.479,0,0,1,1.994,10.276c.334,2.59.68,5.24.829,7.857a38.848,38.848,0,0,1-1.64,7.194" transform="translate(-3197.388 3418.579)" fill="#de791b"/>
    <path id="path84" d="M1602.057-2821.752q-3.85,0-7.693-.287c-.033,0-.067-.006-.1-.008h0l-.07,0q-1.416-.06-2.828-.2c-.515-.05-1.281-.139-1.636-.187-.453-.06-1.295-.192-1.9-.3a50.815,50.815,0,0,1-9.136-2.507,47.967,47.967,0,0,1-17.448-11.522q-1.323-1.369-2.518-2.812a43.32,43.32,0,0,1-1.813-6.939s4.767,5.918,6.749,8.052c5.147,5.545,11.765,7.4,17.383,8.973a51.746,51.746,0,0,0,14.121,1.916,84.067,84.067,0,0,0,11.237-.894c9.335-1.222,16.014-2.1,21.831-6.084,5.247-3.6,8.514-8.853,10.531-14.34a11.182,11.182,0,0,1,1.662.459,12.625,12.625,0,0,1,3.987,2.377c-.044.757-.125,1.642-.273,2.627a29,29,0,0,1-2.226,7.589,29.07,29.07,0,0,1-5.46,8.118,53.237,53.237,0,0,1-12.837,3.746,122.247,122.247,0,0,1-18.261,2.163q-1.652.055-3.3.055" transform="translate(-1544.005 2930.592)" fill="#cccce3"/>
    <path id="path86" d="M2178.017-1585.112a2.309,2.309,0,0,1-.313-.022,2.08,2.08,0,0,0,.741-.272,2.733,2.733,0,0,0,.972-1.24,6.332,6.332,0,0,0,.7-2.516,4.328,4.328,0,0,1-.006,1.327c-.124.779-.3,2.1-1.342,2.569a1.827,1.827,0,0,1-.749.154m-.19-7.39c-.27-.035-.574-.068-.912-.091a1.452,1.452,0,0,1,.224-.016,2.5,2.5,0,0,1,.688.108" transform="translate(-2134.757 1733.574)" fill="#cccce3"/>
    <path id="path88" d="M2167.1-1584.8a3.376,3.376,0,0,1-1.315-.515,3.63,3.63,0,0,0,1.112-1.112,4.038,4.038,0,0,0,.421-3.03c-.4-1.609-1.63-2.191-1.381-2.607a.508.508,0,0,1,.373-.2c.338.023.642.056.912.091a2.784,2.784,0,0,1,.9.449,2.954,2.954,0,0,1,.882,1.3,6.076,6.076,0,0,1,.5,1.587,6.332,6.332,0,0,1-.7,2.516,2.736,2.736,0,0,1-.972,1.24,2.083,2.083,0,0,1-.742.272" transform="translate(-2124.149 1733.244)" fill="#cfbd00"/>
    <path id="path90" d="M1863.633-1757.022a40.879,40.879,0,0,0-7.26-1.738,40.863,40.863,0,0,0-5.844-.42c-1.338,0-2.567.065-3.666.164-5.732-.536-7.058-.688-7.055-.716,0,0,0,0,.01,0,.061,0,.393.055.931.11a21.625,21.625,0,0,0,2.18.11,20.39,20.39,0,0,0,4.65-.525c.488-.115.156-.057,3.885-1.227a37.621,37.621,0,0,1,5.879-1.636,15.236,15.236,0,0,1,2.038-.135,16.887,16.887,0,0,1,3.075.288l1.023.1q.076,2.813.153,5.624" transform="translate(-1813.552 1895.961)" fill="#cccce3"/>
    <path id="path92" d="M2749.971-2150.605c-.445-.02-.921-.043-1.431-.069,3.288-.432,3.3-1.254,13.632-1.654-.349.123-.694.238-1.032.346-.413.059-.805.109-1.17.156-4.5.57-7.652.97-10,1.221" transform="translate(-2679.418 2266.891)" fill="#a6a6e3"/>
    <path id="path94" d="M2782.278-2143.517c-.825,0-1.939-.035-3.392-.1,2.347-.251,5.5-.651,10-1.221.365-.046.757-.1,1.17-.156a35.52,35.52,0,0,1-6.539,1.433c-.3.03-.713.045-1.238.045" transform="translate(-2708.333 2259.903)" fill="#cccce3"/>
    <path id="path96" d="M2309.541-2315.641c-1.87-.094-4.189-.225-7.027-.385-6.886-.389-10.327-.717-13.293-3.272a11.759,11.759,0,0,1-1.414-1.451q1.432.138,2.871.2h0q3.868.289,7.748.29a99.387,99.387,0,0,0,13.136-.863c3.259-.433,6.516-.947,9.748-1.549a60.127,60.127,0,0,0,9.4-2.422q.491-.178.977-.367a3.968,3.968,0,0,1,.1,2.2,4.313,4.313,0,0,1-1.662,2.3,24.6,24.6,0,0,1-6.949,3.665c-10.335.4-10.344,1.221-13.632,1.654" transform="translate(-2240.419 2431.857)" fill="#cfbd00"/>
    <path id="path98" d="M3658.129-1513.721c-.038-.34-.088-.744-.151-1.236.008-.073.016-.145.024-.216a27.266,27.266,0,0,0,.169-3.109l.3-1.857a23.623,23.623,0,0,0,6.532-2.811,24.646,24.646,0,0,0,3.5-2.482,17.264,17.264,0,0,1-6.059,4.425,16.4,16.4,0,0,1-3.937,1.125c.017.744.017,1.741-.051,2.914-.069,1.2-.192,2.291-.333,3.248m12.706-15.211h0a6.769,6.769,0,0,0,.223-2.825c.183.125.418.292.691.5a15.888,15.888,0,0,1-.913,2.321h0" transform="translate(-3545.957 1675.592)" fill="#a6a6e3"/>
    <path id="path100" d="M3654.814-1514.97c-.045-.349-.1-.743-.157-1.191q.175-1.067.35-2.134a27.329,27.329,0,0,1-.169,3.109c-.008.07-.016.143-.024.216m.5-5.182q.1-.587.192-1.175c.205-.014.4-.033.6-.054.006.052.012.1.017.156q.266-.109.544-.231a12.8,12.8,0,0,0,2.319-.586,13.847,13.847,0,0,0,5.93-4.192,15.049,15.049,0,0,0,2.984-5.535h0a6.772,6.772,0,0,1-.223,2.825h0a15.907,15.907,0,0,1-2.325,3.5,24.634,24.634,0,0,1-3.5,2.482,23.622,23.622,0,0,1-6.532,2.811" transform="translate(-3542.794 1675.604)" fill="#cccce3"/>
    <path id="path102" d="M3656.212-1497.052a15.447,15.447,0,0,1-6.981-1.75,13.671,13.671,0,0,0,.591-2.52,7.721,7.721,0,0,0-.026-2.223c.141-.957.264-2.05.333-3.248.068-1.173.068-2.17.051-2.914a16.411,16.411,0,0,0,3.937-1.124,17.263,17.263,0,0,0,6.059-4.426,15.887,15.887,0,0,0,2.325-3.5h0a15.841,15.841,0,0,0,.913-2.321,14.953,14.953,0,0,1,5.018,6.973,13.02,13.02,0,0,1-.2,9.817,13.027,13.027,0,0,1-8.078,6.646,13.367,13.367,0,0,1-3.937.589" transform="translate(-3537.623 1665.415)" fill="#ca7c37"/>
    <path id="path104" d="M3634.029-1169.868c-.128-.072-.234-.135-.318-.185a24.829,24.829,0,0,0,1.145-5.571c.064.492.114.9.152,1.236a33.866,33.866,0,0,1-.741,3.654q-.107.413-.238.865" transform="translate(-3522.835 1336.258)" fill="#8585cc"/>
    <path id="path106" d="M3631.514-1194.115l-.109-.066q.55-3.348,1.1-6.7c.06.448.111.842.157,1.191a24.869,24.869,0,0,1-1.145,5.571" transform="translate(-3520.638 1360.32)" fill="#a3a3cc"/>
    <path id="path108" d="M3640.859-1144.668c-.156-.081-.295-.157-.414-.224q.131-.452.238-.865a33.877,33.877,0,0,0,.741-3.654,7.711,7.711,0,0,1,.026,2.223,13.671,13.671,0,0,1-.591,2.52" transform="translate(-3529.251 1311.281)" fill="#a26343"/>
    <path id="path110" d="M3685.261-1312.9l-.017-.156q.291-.033.561-.075c-.185.081-.367.158-.544.231" transform="translate(-3571.938 1467.278)" fill="#a3a3cc"/>
    <path id="path112" d="M3072.649-4001.094a22.108,22.108,0,0,0-1.04-3.167q.624.969,1.335,2.1c-.082.343-.179.7-.3,1.07m-5.9-10.295-.034-.032a20.3,20.3,0,0,0-1.652-1.4c.092.04.182.083.271.126a3.854,3.854,0,0,1,1.415,1.31m-4.886-3.437q-.293-.148-.567-.276c.156-.05.324-.107.5-.172a1.512,1.512,0,0,0,.043.373c.006.025.013.05.021.076m8.385-7.17a2.292,2.292,0,0,1,1.272-1.183,3.024,3.024,0,0,1,.986-.158,3.168,3.168,0,0,1,1.46.343,4.771,4.771,0,0,0-.492-.024,6.15,6.15,0,0,0-1.289.145,4.863,4.863,0,0,0-1.937.877" transform="translate(-2977.425 4049.642)" fill="#ca7c37"/>
    <path id="path114" d="M3083.12-3995.735q-.709-1.125-1.335-2.1a20.757,20.757,0,0,0-4.857-7.128,3.857,3.857,0,0,0-1.414-1.31c-.089-.043-.179-.085-.271-.125a20.591,20.591,0,0,0-3.2-2c-.008-.025-.014-.05-.021-.076a1.535,1.535,0,0,1-.043-.372,17.22,17.22,0,0,0,2.36-1.056,15.225,15.225,0,0,0,4.805-3.783,14.9,14.9,0,0,0,1.284-1.885,4.86,4.86,0,0,1,1.937-.876,6.109,6.109,0,0,1,1.289-.146,4.642,4.642,0,0,1,.492.025,1.94,1.94,0,0,1,.724.632c1.1,1.671-1.324,4.929-1.841,5.624-1.379,1.855-2.773,2.146-2.965,3.579-.237,1.762,1.7,2.587,2.76,5.011a9.154,9.154,0,0,1,.3,5.985" transform="translate(-2987.6 4043.214)" fill="#6d3874"/>
    <path id="path116" d="M2046.844-4051.887c-.78-1.181-1.527-2.214-2.209-3.1,1.206,1.093,2.114,2.2,2.209,3.1" transform="translate(-2008.717 4079.803)" fill="#ca7c37"/>
    <path id="path118" d="M1948.08-4121.428a17.966,17.966,0,0,0-2.378-6.135,17.635,17.635,0,0,0-1.84-2.454,39.68,39.68,0,0,1,4.754,3.54c.682.889,1.429,1.922,2.209,3.1a1.289,1.289,0,0,1-.061.566c-.188.531-.825,1.1-2.684,1.38" transform="translate(-1912.697 4151.29)" fill="#5f2167"/>
    <path id="path120" d="M1694.5-4037.679a68.426,68.426,0,0,1,2.406-6.816,64.129,64.129,0,0,1,3.58-7.672q.177.445.377.9c-.435.9-1.057,2.2-1.8,3.769-1.777,3.752-3.326,7.1-4.566,9.814m53.826-29.444a36.64,36.64,0,0,0-3.53-1.177,38.734,38.734,0,0,0-10.7-1.363c-.574,0-1.115.007-1.618.015a54.224,54.224,0,0,0-8.173.752c-.159-.188-.336-.4-.532-.623a39.262,39.262,0,0,1,8.9-.923c.75,0,1.453.013,2.109.027a48.823,48.823,0,0,1,14.264,2.454l-.728.838" transform="translate(-1675.101 4094.527)" fill="#b5e6fc"/>
    <path id="path124" d="M1972.608-3962.578a38.487,38.487,0,0,1,6.276-4.6l.075.119-6.351,4.48" transform="translate(-1940.088 3996.132)" fill="#fec3dc"/>
    <path id="path128" d="M1333.449-4469.7a101.133,101.133,0,0,0,20.884-.572c3.259-.434,6.516-.947,9.747-1.549a60.105,60.105,0,0,0,9.4-2.422,36.72,36.72,0,0,0,16.608-12.011,56.44,56.44,0,0,0,7.248-12.748,62.362,62.362,0,0,0,4.5-17.766,69.588,69.588,0,0,0-.523-17.028,58.335,58.335,0,0,0-4.828-16.6,49.631,49.631,0,0,0-13.435-17.293,56.063,56.063,0,0,0-14.681-8.555,64.857,64.857,0,0,0-17.915-4.5,77.319,77.319,0,0,0-16.426.422c-2.949.34-5.9.714-8.806,1.311a52.573,52.573,0,0,0-10.012,3.112,49.592,49.592,0,0,0-17.586,12.763,57.449,57.449,0,0,0-7.231,10.349,57.381,57.381,0,0,0-5.191,13.169,63.165,63.165,0,0,0-2,16.993,55.04,55.04,0,0,0,3.981,19.786,56.758,56.758,0,0,0,6.057,11.239,51.828,51.828,0,0,0,13.61,13.34,51.2,51.2,0,0,0,19.881,7.846,54.246,54.246,0,0,0,6.72.707,1.4,1.4,0,0,0,1.38-1.38,1.4,1.4,0,0,0-1.38-1.381q-1.452-.059-2.9-.2c-.514-.05-1.281-.139-1.636-.187-.453-.061-1.295-.192-1.9-.3a50.773,50.773,0,0,1-9.136-2.507,47.965,47.965,0,0,1-17.448-11.521,49.685,49.685,0,0,1-8.361-11.637,53.506,53.506,0,0,1-5.411-15.977,58.519,58.519,0,0,1-.472-14.332,57.018,57.018,0,0,1,1.787-10.184q.585-2.173,1.333-4.3.328-.928.687-1.846.161-.413.33-.825c.05-.122.1-.244.151-.366,0-.011.088-.208.031-.074-.063.15.068-.158.08-.186a56.372,56.372,0,0,1,4.694-8.655,47.257,47.257,0,0,1,4.509-5.867,47.758,47.758,0,0,1,7.21-6.6,48.216,48.216,0,0,1,19.372-8.408c2.824-.561,5.31-.859,8.126-1.182,2.334-.268,4.672-.5,7.02-.6a59.664,59.664,0,0,1,19.786,2.389c2.177.656,4.33,1.427,6.438,2.28.239.1.477.2.715.293.12.051.092.038.062.025s-.062-.026.061.028l.461.2q.813.356,1.614.735,1.757.833,3.454,1.787a48.079,48.079,0,0,1,14.571,12.519,49.666,49.666,0,0,1,8.594,17.892,64.89,64.89,0,0,1,1.408,7.222c.018.125.044.328.011.076.016.126.033.251.049.377q.046.361.09.722.076.632.147,1.265c.2,1.753.336,3.511.392,5.275a60.56,60.56,0,0,1-2.251,18.4q-.566,2-1.268,3.968-.292.817-.61,1.625c-.1.249-.2.5-.3.742l-.122.3c-.038.092-.023.06-.01.027s.033-.08-.048.109c-.694,1.61-1.472,3.189-2.277,4.748a38.39,38.39,0,0,1-12.217,14.479c-5.241,3.563-11.269,5.222-17.462,6.345a122.378,122.378,0,0,1-18.261,2.163,103.021,103.021,0,0,1-11.1-.24,1.393,1.393,0,0,0-1.38,1.381,1.408,1.408,0,0,0,1.38,1.38" transform="translate(-1283.19 4581.008)" fill="#5f2167"/>
    <path id="path130" d="M1772.815-2431.988a6.553,6.553,0,0,0-2.054,3.17,5.455,5.455,0,0,0,1.566,5.133,17.49,17.49,0,0,0,7.746,4.348,52.19,52.19,0,0,0,7.146,1.513c2.922.478,5.847.963,8.789,1.313a108.056,108.056,0,0,0,15.326.541q4.756-.111,9.514-.322a48.665,48.665,0,0,0,5.683-.653,44.816,44.816,0,0,0,10.008-2.75,8.564,8.564,0,0,0,3.791-2.739,6.669,6.669,0,0,0,.908-5.45,10.377,10.377,0,0,0-.645-1.84,1.385,1.385,0,0,0-1.889-.5,1.423,1.423,0,0,0-.5,1.888c.095.217-.114-.29-.05-.12.022.059.048.117.071.177.042.109.082.218.119.328a7.789,7.789,0,0,1,.275,1.021c.015.077.027.155.041.232-.052-.289,0-.018.005.058.018.19.028.381.028.573q0,.132-.006.263c0-.023-.029.411-.01.218.015-.162-.02.12-.027.155q-.039.207-.1.409c-.032.115-.068.23-.11.343.016-.046.086-.171-.022.053a4.677,4.677,0,0,1-.255.466c-.05.081-.106.159-.159.239-.038.058-.168.18.01-.011-.125.134-.242.276-.374.4s-.265.241-.4.356c.226-.188-.05.032-.144.1a8.15,8.15,0,0,1-.87.508c-.127.064-.256.126-.386.185l-.209.094c-.1.046-.183.02.087-.036a8.615,8.615,0,0,0-1.147.447q-1.24.459-2.508.835a49.9,49.9,0,0,1-4.984,1.2q-1.053.2-2.113.358l-.47.068c-.143.02-.446.08-.131.019-.3.059-.615.079-.918.114-.769.088-1.539.161-2.311.208-2.623.158-5.259.208-7.886.286a126.911,126.911,0,0,1-15.3-.284q-.777-.071-1.553-.16-.4-.045-.8-.094l-.453-.058c-.111-.014-.6-.059-.188-.024-1.288-.11-2.582-.373-3.857-.575-2.552-.4-5.126-.754-7.649-1.319a31.85,31.85,0,0,1-3.607-1.019q-.458-.161-.91-.34c-.077-.03-.533-.224-.224-.089-.167-.073-.334-.145-.5-.221a17.26,17.26,0,0,1-1.83-.972c-.276-.17-.546-.348-.808-.538-.09-.065-.379-.291-.147-.106-.152-.122-.3-.245-.448-.373a9.5,9.5,0,0,1-.755-.738c-.08-.088-.156-.178-.233-.268-.024-.028-.155-.213-.032-.039a5.573,5.573,0,0,1-.336-.526c-.047-.086-.087-.175-.132-.261-.1-.189.079.3-.009-.037-.037-.14-.076-.282-.115-.421-.091-.326,0,.2,0-.005,0-.094-.013-.188-.014-.283s.005-.159.007-.239c.01-.365-.068.255.011-.093.033-.146.067-.291.113-.434,0-.007.122-.348.045-.141s.055-.114.062-.126q.093-.183.2-.359.064-.105.134-.207c.028-.041.189-.319.085-.126s.028-.033.057-.068.072-.084.108-.125c.074-.084.15-.166.229-.246.117-.119.238-.232.364-.342a1.389,1.389,0,0,0,0-1.952,1.414,1.414,0,0,0-1.952,0" transform="translate(-1747.613 2533.732)" fill="#5f2167"/>
    <path id="path132" d="M1706.572-1688.78l-5.808-.165-10.806-.306c-1.958-.055-3.92-.085-5.878-.166a1.339,1.339,0,0,1-.324-.024c.38.121-.092-.035-.187-.062-.067-.019-.133-.042-.2-.063l-.049-.017q-.222-.086.058.026c-.107.009-.363-.193-.447-.248a.78.78,0,0,1-.167-.115c.011.017.249.221.054.035-.1-.094-.2-.182-.29-.282-.015-.016-.231-.271-.083-.088.128.157-.009-.016-.036-.06-.088-.142-.161-.3-.253-.441-.111-.166.1.325.005.013-.021-.065-.046-.13-.066-.2-.025-.083-.136-.331-.1-.406-.036.068.02.274.009.068,0-.09-.013-.179-.014-.269,0-.057,0-.115,0-.172,0-.107.006-.214.009-.321q.061-2.154.122-4.307.071-2.489.141-4.977c.01-.353.016-.706.03-1.059v-.013c0-.09.013-.18.018-.27.012-.2-.06.261-.005.065.043-.151.069-.306.119-.456a.818.818,0,0,1,.071-.194c-.194.254-.026.072.028-.029.064-.12.139-.233.212-.348.147-.232-.037.031-.041.048.015-.059.125-.144.168-.189.072-.075.234-.285.333-.311-.017,0-.28.188-.048.042.086-.054.169-.112.258-.162.059-.034.121-.062.18-.1.093-.055.146-.143-.063.019a1.26,1.26,0,0,1,.392-.13,1.7,1.7,0,0,0,.254-.059c.173-.082-.264.017-.068,0,.162-.011.321-.021.483-.019l.121,0,.854.024,3.655.1,10.727.3c2.339.066,4.676.127,7.014.2l.121,0c.054,0,.449.071.238.014l.121.033c.068.016.135.034.2.054s.131.044.2.066c.271.088-.047-.028-.058-.026.109-.014.36.191.447.248a.781.781,0,0,1,.167.116c-.156-.229-.109-.093-.016,0,.109.106.214.215.32.325s.136.059-.035-.054a.807.807,0,0,1,.115.167c.058.09.259.337.247.445.012-.109-.082-.233-.027-.059.02.065.045.13.065.2.025.084.042.168.066.251.015.053.083.268.021.067-.067-.218.006.082.009.126,0,.072.006.144.006.216,0,.04,0,.08,0,.121-.017,1.087-.061,2.173-.092,3.259q-.076,2.69-.153,5.379-.024.853-.048,1.706c0,.106,0,.213-.009.319,0,.023,0,.045,0,.067a1.1,1.1,0,0,1-.021.269c.011-.034.07-.326,0-.068-.036.135-.065.272-.109.4a.862.862,0,0,1-.071.194c.206-.274.022-.064-.028.029-.071.133-.177.255-.242.389-.079.164.18-.163.039-.05a2.075,2.075,0,0,0-.17.187c-.066.068-.2.25-.3.274.153-.04.18-.123.048-.042-.057.036-.113.075-.17.111s-.148.082-.222.125c-.044.025-.242.133-.059.036.2-.108-.087.029-.116.038-.066.022-.132.042-.2.06s-.136.03-.2.048c-.25.068.021-.013.071,0a2.775,2.775,0,0,0-.537.025,1.451,1.451,0,0,0-1.438,1.438,1.464,1.464,0,0,0,1.438,1.438,5.152,5.152,0,0,0,4.21-2.113,5.142,5.142,0,0,0,.96-2.972c.042-1.35.077-2.7.115-4.049q.075-2.631.149-5.263c.012-.406.027-.812.035-1.218a5.159,5.159,0,0,0-1.41-3.642,5.157,5.157,0,0,0-3.564-1.557c-.2-.008-.411-.011-.616-.018l-3.46-.1-10.972-.311c-2.438-.069-4.877-.143-7.316-.207a5.107,5.107,0,0,0-5.193,4.145,27.98,27.98,0,0,0-.169,3.653q-.078,2.76-.156,5.518a12.542,12.542,0,0,0,.138,3.862,5.179,5.179,0,0,0,3.234,3.364,5.5,5.5,0,0,0,1.742.275l2.808.08,10.672.3,8.345.236.447.013a1.449,1.449,0,0,0,1.438-1.438,1.466,1.466,0,0,0-1.438-1.438" transform="translate(-1660.428 1842.905)" fill="#5f2167"/>
    <path id="path134" d="M2333.689-2112.122a32.254,32.254,0,0,0-5.148,9.469,22.889,22.889,0,0,0-1.146,11.42,20.982,20.982,0,0,0,2.061,6.1.931.931,0,0,0,1.259.33.938.938,0,0,0,.33-1.259,19.253,19.253,0,0,1-1.992-10.862,23.017,23.017,0,0,1,1.082-4.707,32.577,32.577,0,0,1,1.431-3.646,28.508,28.508,0,0,1,3.425-5.54.949.949,0,0,0,0-1.3.926.926,0,0,0-1.3,0" transform="translate(-2277.868 2228.836)" fill="#5f2167"/>
    <path id="path136" d="M2344.273-2146.456a22.866,22.866,0,0,0-10.28,7.264,25.914,25.914,0,0,0-3.084,5.12,44.277,44.277,0,0,0-1.935,4.765,55.024,55.024,0,0,0-2.02,10.126c-.566,4.317-1.06,8.641-1.327,12.988-.264,4.3-.393,8.608-.361,12.916a1.4,1.4,0,0,0,1.381,1.381,1.4,1.4,0,0,0,1.381-1.381c-.029-3.876.076-7.75.286-11.621.223-4.128.647-8.231,1.154-12.333q.089-.724.182-1.447.049-.376.1-.751c.006-.042.061-.451.016-.12q.028-.209.057-.418c.121-.873.25-1.746.4-2.616a43.786,43.786,0,0,1,1.008-4.638q.308-1.092.69-2.159.179-.5.375-.991c.073-.183.147-.364.221-.546.13-.318-.122.279.016-.038l.12-.277a33.368,33.368,0,0,1,2.474-4.819q.24-.372.5-.733c.05-.071.1-.14.151-.21.027-.037.33-.44.18-.246a18.819,18.819,0,0,1,1.263-1.468q.667-.7,1.4-1.342c.259-.226.522-.444.791-.658.017-.014.206-.159.059-.047.148-.113.3-.223.45-.333a21.9,21.9,0,0,1,2.91-1.762,10.192,10.192,0,0,1,1.256-.585c-.348.118-.041.018.029-.01.114-.047.229-.093.344-.137.187-.073.374-.143.562-.211a1.41,1.41,0,0,0,.964-1.7,1.4,1.4,0,0,0-1.7-.964" transform="translate(-2276.106 2261.359)" fill="#5f2167"/>
    <path id="path138" d="M2212.78-1662.676a12.592,12.592,0,0,0-8.057-2.533,13.691,13.691,0,0,0-4.35.933,13.5,13.5,0,0,0-4.8,3.322,6.433,6.433,0,0,0-1.911,5.767,7.354,7.354,0,0,0,2.406,3.905,9.361,9.361,0,0,0,5.053,2.162,49.562,49.562,0,0,0,7.816.415c2.039-.04,4.076-.176,6.1-.39a12.026,12.026,0,0,0,3.226-.542,11.415,11.415,0,0,0,2.93-1.7,11.925,11.925,0,0,0,3.334-4.735c.857-1.948,1.669-3.917,2.41-5.912a53.877,53.877,0,0,0,1.8-5.518c.931-3.677,1.619-7.421,2.241-11.161q.969-5.827,1.7-11.689.217-1.72.415-3.442a1.384,1.384,0,0,0-1.381-1.381,1.421,1.421,0,0,0-1.381,1.381q-.2,1.722-.415,3.442-.1.776-.2,1.553c-.031.228-.061.457-.092.686.039-.288-.021.153-.023.172q-.036.265-.072.53-.369,2.68-.787,5.354c-.6,3.82-1.26,7.632-2.1,11.406-.382,1.7-.8,3.369-1.346,5.028-.475,1.451-1,2.887-1.553,4.311q-.229.589-.467,1.175-.15.373-.3.744c-.053.128-.106.255-.159.382-.106.256.04-.091-.08.191-.374.878-.738,1.765-1.161,2.621a10.125,10.125,0,0,1-.55.979c-.108.169-.223.333-.34.5-.238.333.175-.192-.1.13-.089.1-.177.209-.269.311q-.294.324-.62.619c-.091.082-.184.162-.278.24-.037.031-.278.216-.111.092a9.124,9.124,0,0,1-1.307.811c-.167.086-.336.163-.506.242-.323.15.272-.1-.047.018-.088.033-.175.067-.263.1-.016.006-.269.126-.1.058.194-.077-.226.037-.242.039q-.491.063-.984.12-1.592.185-3.192.3a58.974,58.974,0,0,1-9.28.017c-.457-.038-.913-.083-1.367-.139l-.274-.034c-.345-.043.368.052.074.009-.152-.021-.3-.043-.453-.067-.334-.053-.665-.113-.993-.2a7.38,7.38,0,0,1-1.016-.333c.053.022.242.116,0,0-.114-.057-.229-.111-.341-.171a7.114,7.114,0,0,1-.7-.436c-.218-.154-.009.007-.164-.13-.053-.047-.109-.093-.163-.141a7.545,7.545,0,0,1-.554-.548c-.093-.1-.179-.206-.268-.31-.2-.234.18.259,0,0-.053-.077-.108-.152-.16-.229-.091-.135-.176-.274-.255-.416q-.075-.132-.142-.268c-.031-.062-.06-.124-.088-.187q.105.255.02.038c-.056-.172-.117-.34-.161-.516-.027-.108-.048-.217-.069-.326-.05-.259,0-.021,0,.028-.014-.243-.012-.479-.008-.722.006-.378-.048.157,0-.056.033-.135.054-.271.091-.4.031-.111.072-.219.107-.33.11-.348-.134.23.038-.089.089-.164.171-.33.269-.489s.2-.305.311-.453c-.2.271.018-.016.053-.059.091-.108.186-.214.281-.318.25-.27.515-.526.784-.779.132-.125.265-.248.4-.369.1-.087.2-.171.3-.255.321-.269-.208.143.126-.1a11.249,11.249,0,0,1,1.136-.731c.2-.114.412-.221.623-.322l.207-.1.206-.091c-.158.067-.166.071-.022.013a13.94,13.94,0,0,1,2.168-.629q.235-.045.472-.082c.4-.062-.269.025.111-.016.274-.03.547-.055.823-.069.309-.016.618-.02.927-.006.15.007.3.019.45.033.02,0,.467.054.172.014.11.015.219.033.326.052a11.4,11.4,0,0,1,1.4.334q.332.1.657.224l.208.08c.345.127-.258-.121.069.027.358.162.71.333,1.053.526a12.323,12.323,0,0,1,1.343.876,1.384,1.384,0,0,0,1.889-.5,1.422,1.422,0,0,0-.495-1.889" transform="translate(-2150.601 1831.303)" fill="#5f2167"/>
    <path id="path140" d="M2946.388-1553.325a15.017,15.017,0,0,0-7.346-4.025,15.846,15.846,0,0,0-9.159.849,13.589,13.589,0,0,0-7.567,7.113,17.734,17.734,0,0,0-1.226,4.661,23.743,23.743,0,0,0-.165,5.724,25.834,25.834,0,0,0,3.049,9.642,1.394,1.394,0,0,0,1.889.495,1.41,1.41,0,0,0,.495-1.889q-.353-.648-.671-1.316c-.125-.264-.246-.529-.361-.8-.024-.055-.053-.113-.073-.171.126.362.022.052-.006-.02q-.093-.227-.18-.457a23.565,23.565,0,0,1-1.215-4.341c-.036-.206-.068-.413-.1-.62-.064-.4.018.171-.012-.077-.013-.107-.027-.214-.038-.321q-.074-.658-.107-1.321a20.69,20.69,0,0,1,.052-2.8c.034-.394.084-.786.133-1.177.011-.086,0-.251-.013.088,0-.079.022-.16.033-.238q.039-.271.083-.54a17.214,17.214,0,0,1,.478-2.117c.113-.378.247-.747.387-1.116.018-.047.1-.241,0-.009.042-.095.083-.189.127-.283q.146-.317.311-.624a11.378,11.378,0,0,1,.7-1.128c.052-.075.106-.15.161-.224.259-.36-.083.1.083-.109s.335-.4.513-.6a11.746,11.746,0,0,1,.969-.938c.064-.056.129-.111.2-.165-.013.011.309-.248.153-.126s.164-.12.153-.113c.1-.07.192-.138.291-.2a12.944,12.944,0,0,1,1.8-1.03c.13-.062.26-.119.391-.177.213-.1-.1.036-.111.046a1.325,1.325,0,0,1,.205-.084q.286-.115.576-.22a14.919,14.919,0,0,1,2.814-.72c.42-.066-.159.009.09-.012.106-.009.213-.024.319-.034q.308-.029.616-.045c.378-.02.757-.025,1.135-.016q.47.011.941.054c.131.012.262.025.393.041.276.033.069-.072-.049-.007.037-.02.18.027.219.033a12.041,12.041,0,0,1,1.24.266,13.431,13.431,0,0,1,1.455.485c.061.024.317.136.078.03.112.05.224.1.336.152q.322.15.635.318.531.284,1.037.613a3.676,3.676,0,0,1,.871.616c-.172-.222-.137-.109-.037-.026.075.062.151.123.226.185.1.083.2.167.293.252.193.17.381.347.563.528a1.4,1.4,0,0,0,1.952,0,1.4,1.4,0,0,0,0-1.952" transform="translate(-2843.572 1700.286)" fill="#5f2167"/>
    <path id="path142" d="M2912.308-1207.914a10.565,10.565,0,0,0-12.408,1.337,7.9,7.9,0,0,0-2.469,6.9,7.217,7.217,0,0,0,3.375,4.748,8.634,8.634,0,0,0,4.365,1.03q2.2.05,4.4.048a47.9,47.9,0,0,0,7.135-.445,41.66,41.66,0,0,0,7.3-1.826,2.882,2.882,0,0,0,.981-.523,5.684,5.684,0,0,0,.62-.611,6.077,6.077,0,0,0,1-1.553,11.355,11.355,0,0,0,.849-3.607,21.453,21.453,0,0,0-.2-4.742,62.094,62.094,0,0,0-1.582-7.954q-.312-1.16-.666-2.308a1.4,1.4,0,0,0-1.7-.964,1.4,1.4,0,0,0-.964,1.7,63.094,63.094,0,0,1,2.165,9.649c.036.253,0-.035-.01-.072.013.08.021.16.031.241.018.14.036.281.053.422.026.212.051.424.073.637.033.322.057.645.072.968q.04.8.01,1.611c-.01.288-.028.576-.055.863a2.344,2.344,0,0,1-.048.445c.1-.316.018-.121,0-.018s-.032.2-.05.3a9.484,9.484,0,0,1-.243,1.028c-.057.19-.125.375-.192.561-.05.137.021.112.026-.06a1.062,1.062,0,0,1-.124.26,4.864,4.864,0,0,1-.259.449q-.064.1-.132.191c.154-.213-.038.036-.1.1a5.351,5.351,0,0,1-.615.581l.61-.355a46.736,46.736,0,0,1-4.981,1.431c-.713.162-1.431.305-2.153.423-.169.028-.338.053-.507.078-.1.015-.2.034-.3.043.038,0,.319-.04.065-.009-.368.045-.735.087-1.1.121-1.465.137-2.936.176-4.406.182-1.839.008-3.69.021-5.527-.065-.212-.01-.425-.024-.636-.045-.043,0-.447-.07-.127-.013-.081-.014-.162-.027-.243-.043a6.05,6.05,0,0,1-.6-.149c-.1-.03-.2-.072-.295-.1s-.079-.028.036.02c-.079-.035-.157-.072-.233-.111a5.281,5.281,0,0,1-.6-.354c-.057-.039-.112-.081-.168-.121-.084-.058-.142-.158.157.123-.049-.047-.107-.086-.159-.13a6.474,6.474,0,0,1-.493-.459q-.145-.149-.279-.306l-.056-.067q-.137-.171.049.068a1.03,1.03,0,0,1-.163-.226,6.665,6.665,0,0,1-.493-.87c.153.314-.067-.2-.092-.279a6.3,6.3,0,0,1-.162-.673c-.011-.06-.011-.246,0-.007,0-.132-.021-.263-.024-.4,0-.21.009-.418.025-.628,0,.053-.05.274,0,.01.018-.1.035-.191.057-.286a5.559,5.559,0,0,1,.167-.591c.035-.1.076-.2.112-.3-.1.286-.051.114-.018.048.071-.143.139-.288.217-.429a8.059,8.059,0,0,1,.477-.758c.06-.086.123-.17.185-.254.021-.029.042-.057.064-.085-.177.231.075-.084.094-.106a7.337,7.337,0,0,1,.878-.86c.058-.048.265-.2.028-.026.074-.053.148-.107.223-.159q.221-.152.451-.288a4.239,4.239,0,0,1,.948-.482c-.349.1-.054.026.024,0s.174-.065.261-.095q.25-.087.5-.16.415-.119.84-.2c.131-.026.264-.047.4-.068.33-.054-.379.042.025,0,.22-.024.44-.04.662-.048q.415-.015.83.009.166.01.33.026c.065.006.129.013.194.02-.155-.022-.152-.021.01,0a10.1,10.1,0,0,1,1.3.307q.271.085.535.185a1.148,1.148,0,0,1,.268.106c-.131-.1-.2-.087,0,0,.262.12.517.252.768.393a1.4,1.4,0,0,0,1.888-.5,1.4,1.4,0,0,0-.495-1.889" transform="translate(-2821.192 1377.053)" fill="#5f2167"/>
    <path id="path144" d="M2988.1-1930.757a31.72,31.72,0,0,0,15.423-9.721,27.4,27.4,0,0,0,3.091-4.615l-.495.5.941-.47-1.673-.217,5.092,5.276q-.178-.671-.355-1.343-.154.613-.307,1.227c.118-.2.236-.406.355-.609a72.053,72.053,0,0,1-5.314,5.011q-.843.713-1.716,1.389c.2-.153-.206.156-.242.184-.143.108-.287.215-.431.322q-.532.392-1.073.771-1.878,1.313-3.87,2.45a50.343,50.343,0,0,1-4.9,2.438,1.384,1.384,0,0,0-.495,1.888,1.423,1.423,0,0,0,1.889.5,51.325,51.325,0,0,0,11.174-6.676c1.384-1.079,2.711-2.229,3.991-3.43q.866-.813,1.711-1.65.458-.455.91-.917a3.39,3.39,0,0,0,.532-.6,4.428,4.428,0,0,0,.344-1.148,1.723,1.723,0,0,0-.253-1.751c-.206-.233-.434-.45-.65-.674l-1.517-1.572-2.925-3.031a1.418,1.418,0,0,0-1.673-.216,3.139,3.139,0,0,0-1.458,1.008c-.186.306-.342.633-.523.943q-.593,1.018-1.279,1.979c-.135.19-.275.377-.414.563-.01.014-.156.2-.049.065l-.184.232q-.474.59-.982,1.15a25.231,25.231,0,0,1-2,1.971q-.436.385-.889.75l-.2.156c-.319.257.213-.157-.11.085q-.238.179-.479.355-.862.625-1.77,1.181c-.945.581-1.923,1.111-2.915,1.607q-.536.27-1.083.518-.3.136-.6.266c-.059.026-.311.13-.071.031-.119.049-.237.1-.356.145q-1.449.583-2.947,1.027a1.4,1.4,0,0,0-.964,1.7,1.4,1.4,0,0,0,1.7.964" transform="translate(-2906.005 2071.845)" fill="#5f2167"/>
    <path id="path146" d="M3205.331-2283.414a30.447,30.447,0,0,0,5.6,14.66,33.266,33.266,0,0,0,2.167,2.676,1.389,1.389,0,0,0,1.952,0,1.412,1.412,0,0,0,0-1.952q-.42-.465-.821-.946-.2-.237-.389-.479c-.026-.032-.256-.323-.136-.171s-.019-.023-.047-.062l-.124-.164a29.317,29.317,0,0,1-1.8-2.692q-.47-.8-.888-1.622-.213-.419-.411-.844-.1-.218-.2-.437c-.028-.063-.056-.126-.084-.19s-.125-.292-.054-.122a28.3,28.3,0,0,1-1.323-3.955q-.26-1.021-.446-2.059-.085-.476-.155-.953c-.008-.057-.016-.115-.025-.172.047.313.007.04,0-.027-.02-.163-.039-.326-.057-.489a1.413,1.413,0,0,0-1.38-1.381,1.4,1.4,0,0,0-1.38,1.381" transform="translate(-3114.656 2393.11)" fill="#5f2167"/>
    <path id="path148" d="M3472.113-1766.861a45.149,45.149,0,0,1,2.39,3.965q.664,1.242,1.248,2.524.144.314.282.63c.111.253.162.374.211.492q.271.658.524,1.322a41.584,41.584,0,0,1,2,6.994c.084.448.162.9.239,1.348.052.309.1.618.15.928q.041.273.08.545c.037.262,0,.017,0-.03q.023.172.044.343a29.065,29.065,0,0,1,.2,5,22.1,22.1,0,0,1-.861,5.159q-.331,1.168-.773,2.3c-.067.172-.138.343-.208.515-.09.221.131-.293-.027.063l-.1.221q-.241.541-.506,1.072a28.37,28.37,0,0,1-2.4,3.947q-.141.2-.285.388l-.114.151-.113.148c.113-.145.137-.177.075-.1-.2.241-.385.486-.583.724q-.552.665-1.139,1.3a1.4,1.4,0,0,0,0,1.952,1.4,1.4,0,0,0,1.952,0,28.873,28.873,0,0,0,7.7-16.158,33.726,33.726,0,0,0-.543-9.877,42.3,42.3,0,0,0-1.711-6.537,46.541,46.541,0,0,0-5.344-10.723,1.407,1.407,0,0,0-1.889-.5,1.4,1.4,0,0,0-.495,1.889" transform="translate(-3368.673 1901.589)" fill="#5f2167"/>
    <path id="path150" d="M1907.029-1309.872a31.968,31.968,0,0,0,10.547,15.719,46.759,46.759,0,0,0,3.857,2.889,1.389,1.389,0,0,0,1.888-.495,1.413,1.413,0,0,0-.495-1.889q-.8-.536-1.57-1.1-.193-.142-.385-.286l-.171-.13c-.005,0-.286-.219-.116-.089s-.112-.087-.117-.092l-.171-.135q-.214-.17-.427-.343a37.633,37.633,0,0,1-3.1-2.822q-.742-.757-1.435-1.558-.352-.407-.69-.826c-.114-.141-.226-.283-.337-.425-.131-.167.12.163-.006-.009-.073-.1-.147-.194-.219-.291a29.084,29.084,0,0,1-2.416-3.84q-.312-.6-.595-1.208c-.1-.216-.2-.433-.292-.651-.017-.037-.1-.244-.013-.031-.05-.122-.1-.243-.148-.365a27.726,27.726,0,0,1-.928-2.754,1.4,1.4,0,0,0-1.7-.964,1.4,1.4,0,0,0-.964,1.7" transform="translate(-1877.554 1465.846)" fill="#5f2167"/>
    <path id="path152" d="M2722.271-811.315a73.411,73.411,0,0,0,9.193-.236,1.411,1.411,0,0,0,1.38-1.381,1.4,1.4,0,0,0-1.38-1.381,73.435,73.435,0,0,1-9.193.237,1.391,1.391,0,0,0-1.381,1.38,1.409,1.409,0,0,0,1.381,1.38" transform="translate(-2653.073 991.994)" fill="#5f2167"/>
    <path id="path154" d="M1815.29-2201.854a47.894,47.894,0,0,1,.069-7.1q.088-1.031.22-2.057c.031-.243-.024.174.01-.07.011-.073.021-.147.031-.22.025-.173.051-.345.077-.518q.088-.564.189-1.127.375-2.081.937-4.123t1.3-4a1.387,1.387,0,0,0-.964-1.7,1.417,1.417,0,0,0-1.7.964,48.5,48.5,0,0,0-3.022,16.087q-.031,1.935.095,3.869a1.406,1.406,0,0,0,1.38,1.38,1.4,1.4,0,0,0,1.38-1.38" transform="translate(-1787.464 2334.052)" fill="#5f2167"/>
    <path id="path156" d="M1510.994-4010.249c-.377-.479-.779-1.013-1.194-1.6q-.593-.835-1.146-1.7a35.766,35.766,0,0,1-1.809-3.169q-.378-.751-.717-1.521l-.089-.2c-.011-.025-.083-.2-.016-.038s0-.012-.015-.037c-.027-.067-.055-.134-.082-.2q-.149-.368-.287-.741a26.212,26.212,0,0,1-.83-2.643,23.3,23.3,0,0,1-.483-2.389c-.009-.059-.055-.383-.018-.121s-.007-.063-.013-.115c-.022-.181-.041-.361-.058-.542q-.044-.475-.067-.95a19.047,19.047,0,0,1,.094-3.006c.006-.05.012-.1.018-.149.035-.32-.043.286-.008.054.026-.175.053-.352.083-.526.061-.35.133-.7.213-1.045.179-.772.4-1.534.644-2.289.653-2.032,1.439-4.021,2.218-6.007.431-1.1.854-2.2,1.306-3.291l.1-.24c.016-.036.031-.073.046-.11.057-.135-.161.38-.057.137.09-.211.18-.423.271-.634q.359-.831.728-1.658c1.882-4.225,3.861-8.408,5.827-12.594.786-1.672,1.57-3.346,2.379-5.007.407-.838.8-1.695,1.287-2.492.209-.344.446-.672.677-1q.254-.362.515-.719.13-.177.262-.354l.149-.2c.123-.163.184-.2.008-.012.542-.581,1-1.25,1.531-1.847q.917-1.035,1.911-2,1.14-1.1,2.377-2.1c.1-.085.211-.168.317-.253l.045-.036c-.135.1.062-.048.093-.072q.358-.272.721-.534.7-.506,1.43-.975a32.586,32.586,0,0,1,3.317-1.873,27.509,27.509,0,0,1,3.753-1.523,32.647,32.647,0,0,1,3.642-.966q.858-.175,1.723-.308c.133-.021.267-.041.4-.06l.17-.024c-.048.007-.292.038-.03,0s.513-.064.769-.093c1.613-.177,3.239-.277,4.861-.33a49.941,49.941,0,0,1,5.734.147q.954.079,1.9.2c.065.008.4.051.179.022.162.021.323.045.484.068q.526.078,1.051.169a35.67,35.67,0,0,1,4.175.977q.944.285,1.87.629.472.177.938.367c.025.01.3.125.165.069-.113-.048.1.045.1.043.173.076.347.153.519.232a1.415,1.415,0,0,0,1.889-.495,1.4,1.4,0,0,0-.495-1.889,40.272,40.272,0,0,0-16.008-3.312,51.274,51.274,0,0,0-11.01.9,34.145,34.145,0,0,0-14.434,6.785,37.535,37.535,0,0,0-7.328,7.853,38.042,38.042,0,0,0-3.057,5.717c-2.113,4.448-4.207,8.907-6.247,13.39-.916,2.014-1.831,4.03-2.646,6.086-.806,2.033-1.615,4.065-2.37,6.117a37.145,37.145,0,0,0-1.531,4.944,21.082,21.082,0,0,0-.155,7.729,30.369,30.369,0,0,0,4.77,11.738c.8,1.231,1.675,2.412,2.585,3.565a1.384,1.384,0,0,0,1.952,0,1.422,1.422,0,0,0,0-1.952" transform="translate(-1491.111 4106.616)" fill="#5f2167"/>
    <path id="path158" d="M3177.7-3414.645a57.267,57.267,0,0,1,1.9,6.07q.655,2.541,1.109,5.127.119.679.222,1.36c.037.243.071.486.106.728.059.408-.035-.286.018.125.021.165.042.331.062.5q.188,1.532.291,3.074a46.849,46.849,0,0,1,0,6.477q-.06.828-.154,1.655c-.015.138-.033.276-.05.414a1,1,0,0,1-.024.186c-.04.276-.081.553-.125.828a34.335,34.335,0,0,1-.744,3.442c-.283,1.045-.615,2.077-.987,3.094q-.238.65-.5,1.292-.068.168-.137.336c-.016.039-.172.406-.044.108q-.157.367-.32.732c-.56,1.251-1.173,2.479-1.854,3.67a35.384,35.384,0,0,1-2.189,3.345q-.121.165-.244.33c-.028.037-.339.445-.19.253-.185.239-.374.476-.564.71q-.5.614-1.027,1.209-.978,1.1-2.039,2.133a1.394,1.394,0,0,0,0,1.952,1.407,1.407,0,0,0,1.952,0,40.673,40.673,0,0,0,10.332-16.84c2.648-8.263,2.069-17.259.1-25.6a58.87,58.87,0,0,0-2.234-7.436,1.412,1.412,0,0,0-1.7-.964,1.4,1.4,0,0,0-.964,1.7" transform="translate(-3080.815 3471.338)" fill="#5f2167"/>
    <path id="path160" d="M2754.416-4170.18a77.922,77.922,0,0,1,11.346-6.27c.081-.036.161-.069.241-.1.045-.021-.385.16-.153.064l.178-.074q.417-.171.837-.336,1.218-.475,2.456-.9a65.629,65.629,0,0,1,7.677-2.26,7.342,7.342,0,0,1,1.855-.228c.186,0,.372,0,.557.013l.21.016c.031,0,.318.04.167.017-.136-.021.1.018.1.019.094.019.188.037.282.059.191.043.381.1.568.154.154.049.3.106.454.164.06.023.229.094-.024-.011s-.033-.014.031.017c.083.038.166.079.247.12q.292.149.571.324c.1.064.2.129.3.2.079.053.377.292.177.124a9.511,9.511,0,0,1,.709.643q.17.175.328.36c.056.065.11.134.166.2-.079-.1-.085-.115-.006,0a8.752,8.752,0,0,1,.83,1.453c-.137-.3.043.126.066.189.045.125.086.249.126.375.087.277.161.556.226.839s.126.594.176.893c.024.146.046.291.069.437.007.048.033.269,0,.017.011.088.022.176.032.263a38.125,38.125,0,0,1,.067,8.006c-.107,1.151-.262,2.3-.413,3.445q-.036.273-.073.549c0-.027.027-.194,0-.031q-.018.133-.037.266-.066.483-.136.968c-.089.613-.184,1.225-.288,1.835a38.043,38.043,0,0,1-1.848,6.962q-.14.374-.289.747c-.046.116-.093.232-.14.348-.04.1-.188.446-.073.181-.235.545-.476,1.086-.732,1.621q-.878,1.834-1.936,3.573-.591.973-1.235,1.912a1.388,1.388,0,0,0,.5,1.888,1.413,1.413,0,0,0,1.888-.494,40.173,40.173,0,0,0,6.25-14.489c.535-2.616.862-5.283,1.178-7.933a40.62,40.62,0,0,0,.231-7.728c-.189-2.654-.532-5.488-2.2-7.668a8.862,8.862,0,0,0-6.525-3.582,14.426,14.426,0,0,0-4.546.657q-2.115.565-4.2,1.228c-1.778.565-3.544,1.179-5.271,1.887a71.972,71.972,0,0,0-10.373,5.434q-1.007.62-2,1.266a1.4,1.4,0,0,0-.495,1.889,1.4,1.4,0,0,0,1.889.495" transform="translate(-2683.034 4201.822)" fill="#5f2167"/>
    <path id="path162" d="M3047.562-4032.417a56.209,56.209,0,0,0,6.775-4.892c.774-.659,1.494-1.38,2.271-2.035a3.41,3.41,0,0,1,2.9-1.036,2.484,2.484,0,0,1,.717.31,3.627,3.627,0,0,1,.3.206c-.146-.11.066.061.1.1a2.982,2.982,0,0,1,.816,1.138,7.919,7.919,0,0,1,.386,3.455,41.909,41.909,0,0,1-1.149,6.981,69.955,69.955,0,0,1-2.969,9.539h1.774a40.081,40.081,0,0,0-3.744-7.309,22.17,22.17,0,0,0-4.444-5.015c-1.179-.966-2.367-1.924-3.552-2.883a.947.947,0,0,0-1.3,0,.927.927,0,0,0,0,1.3c1.54,1.247,3.162,2.441,4.623,3.782a24.158,24.158,0,0,1,4.737,6.565,39.929,39.929,0,0,1,1.907,4.047.929.929,0,0,0,1.774,0,70.05,70.05,0,0,0,2.837-8.981,49.6,49.6,0,0,0,1.315-7.575c.206-2.547-.1-5.476-2.489-6.937a4.331,4.331,0,0,0-4.344-.038,13.806,13.806,0,0,0-2.76,2.2,50.831,50.831,0,0,1-7.414,5.493c-1,.624-.082,2.217.929,1.589" transform="translate(-2963.018 4067.676)" fill="#5f2167"/>
    <path id="path164" d="M1771.709-4282.488c-.07-.507.032.252-.034-.249-.02-.152-.04-.3-.058-.456q-.052-.412-.1-.822-.1-.864-.184-1.731-.146-1.53-.237-3.064-.141-2.38-.146-4.768,0-2.007.156-4.009.049-.621.115-1.241.031-.3.067-.595c.014-.121.029-.243.045-.365.01-.083.021-.165.031-.247-.021.16-.021.156,0-.008.147-1.024.319-2.044.531-3.057q.35-1.673.827-3.314c.146-.5.3-1,.469-1.5.073-.213.148-.427.228-.639.035-.091.072-.183.106-.275q.09-.22-.008.014c.029-.069.058-.136.089-.2a7.928,7.928,0,0,1,.536-1c.053-.082.109-.161.163-.241.171-.261-.153.153-.015.015s.261-.3.408-.442c.067-.062.137-.121.206-.182.223-.2-.194.1-.024.02.151-.072.289-.191.437-.271.01-.005.416-.192.164-.089a3.571,3.571,0,0,1,.377-.128c.084-.025.169-.047.254-.066.059-.014.57-.081.275-.056a7.2,7.2,0,0,1,1.421.025c-.308-.035.113.02.145.025.127.022.253.046.379.074.25.052.5.112.744.177.611.162,1.224.337,1.819.552.112.04.223.082.333.125l.116.047c.143.057.185.157-.089-.039a6.235,6.235,0,0,0,.792.371,19.8,19.8,0,0,1,1.853,1.077c.432.28.855.574,1.271.876q.383.279.759.567l.063.049c.158.124.316.25.473.375q1.086.872,2.122,1.805a51.9,51.9,0,0,1,4.952,5.128,1.386,1.386,0,0,0,1.952,0,1.417,1.417,0,0,0,0-1.953,49.743,49.743,0,0,0-9.338-8.649,17.778,17.778,0,0,0-8.607-3.4,6.109,6.109,0,0,0-5.573,2.49,10.305,10.305,0,0,0-1.243,2.5,33.573,33.573,0,0,0-1,3.258,48.683,48.683,0,0,0-1.539,11.476,83.454,83.454,0,0,0,.85,12.742,1.383,1.383,0,0,0,1.7.963,1.424,1.424,0,0,0,.964-1.7" transform="translate(-1745.31 4326.832)" fill="#5f2167"/>
    <path id="path166" d="M1896.917-4155.505a39.229,39.229,0,0,0-3.922-5.609c-.485-.571-.993-1.123-1.528-1.647a8.452,8.452,0,0,0-2.218-1.744,2.066,2.066,0,0,0-2.916.973,11.383,11.383,0,0,0-.686,3.612,33.354,33.354,0,0,0-.038,5.817c.18,2.223.364,4.442.48,6.671a.941.941,0,0,0,.921.92.929.929,0,0,0,.92-.92q-.162-3.086-.437-6.166a35.2,35.2,0,0,1-.131-4.368,28.53,28.53,0,0,1,.321-3.526,6.092,6.092,0,0,1,.257-1.139c.1-.272-.066.091.069-.152,0-.007.178-.243.072-.122.122-.139-.077,0,.094-.072-.181.07.036.036-.048.017a4.619,4.619,0,0,1,1.915,1.379c.478.461.935.945,1.372,1.445a35.73,35.73,0,0,1,3.913,5.559.921.921,0,0,0,1.589-.929" transform="translate(-1857.089 4184.391)" fill="#5f2167"/>
    <path id="path168" d="M1803.681-3364.048c.863-3.95-1.03-7.719-4.226-8.417s-6.487,1.94-7.349,5.891,1.03,7.719,4.226,8.417,6.487-1.939,7.349-5.89" transform="translate(-1767.901 3429.579)" fill="#5f2167"/>
    <path id="path170" d="M2056.364-3095.723a4.294,4.294,0,0,0-3.325,1.756,3.8,3.8,0,0,0-.172,3.67,28.218,28.218,0,0,0,1.91,3.259,4.911,4.911,0,0,0,1.318,1.5,1.759,1.759,0,0,0,1.474.187A21.85,21.85,0,0,0,2061.8-3087c1.2-.633,2.606-1.332,2.876-2.793a3.659,3.659,0,0,0-.927-3.219,11.549,11.549,0,0,0-3.643-1.86,7.875,7.875,0,0,0-3.738-.855.948.948,0,0,0-.92.921.926.926,0,0,0,.92.92,3.561,3.561,0,0,1,.54-.024c.105,0,.21.012.315.023-.189-.021.1.02.164.034a9.563,9.563,0,0,1,1.417.437,20.629,20.629,0,0,1,3.226,1.421c.131.077.254.165.381.247s-.15-.145.005.009c.038.038.076.075.115.112.174.164-.093-.175.015.015a2.685,2.685,0,0,1,.245.5,1.606,1.606,0,0,1-.08,1.362c.09-.145-.024.02-.081.075-.027.025-.227.189-.12.108a8.213,8.213,0,0,1-.781.493,18.455,18.455,0,0,1-3.452,1.556c-.305.1-.612.208-.92.307-.1.032-.2.065-.306.094-.052.015-.287.079-.073.03.161-.038.094-.013.042-.012-.143,0,.053-.078.147.023-.019-.019-.118-.024-.148-.036-.109-.042.182.12.128.054a.4.4,0,0,0-.085-.048c-.173-.085.17.17-.012-.01-.068-.067-.136-.133-.2-.205-.036-.04-.069-.081-.1-.122-.016-.019-.031-.039-.047-.058-.12-.138.1.132.029.038a26.267,26.267,0,0,1-1.409-2.233q-.291-.505-.575-1.013a4.876,4.876,0,0,1-.326-.634c-.025-.076-.042-.154-.066-.23-.034-.106-.033-.161-.019-.044-.007-.058-.01-.117-.012-.176,0-.111,0-.222,0-.333,0,0,.012-.148,0-.063a1.5,1.5,0,0,0,.034-.181,1.727,1.727,0,0,1,.93-1.225,3.029,3.029,0,0,1,.588-.2c.121-.029.243-.05.365-.072.231-.043-.124.013.126-.019a.949.949,0,0,0,.92-.92.926.926,0,0,0-.92-.921" transform="translate(-2016.189 3165.809)" fill="#5f2167"/>
    <path id="path172" d="M2119.405-2906.229a5.485,5.485,0,0,0,.552,4.75,6.517,6.517,0,0,0,3.519,2.628c2.9.916,5.875,0,8.372-1.564a16.854,16.854,0,0,0,2.336-1.75.93.93,0,0,0,0-1.3.936.936,0,0,0-1.3,0c-.166.15-.337.294-.511.435-.079.064-.16.127-.24.19.167-.13-.036.027-.092.069q-.309.229-.626.445a12.9,12.9,0,0,1-3.157,1.616,5.93,5.93,0,0,1-6.432-1.328c-.034-.039-.068-.079-.1-.119-.171-.207.1.148-.069-.091a4.825,4.825,0,0,1-.269-.423,3.67,3.67,0,0,1-.379-1.019,3.605,3.605,0,0,1,.173-2.049.929.929,0,0,0-.643-1.132.939.939,0,0,0-1.132.643" transform="translate(-2079.67 2985.874)" fill="#5f2167"/>
    <path id="path174" d="M1892.944-2965.069a16.24,16.24,0,0,1,1.774,3.263c.422,1.1.582,2.335,1.437,3.212,1.547,1.585,4.385,1.521,6.308.761a8.688,8.688,0,0,0,2.694-1.7.93.93,0,0,0,0-1.3.936.936,0,0,0-1.3,0c-.093.084-.187.168-.284.249-.063.053-.128.1-.192.157.14-.11-.055.038-.1.072a7.415,7.415,0,0,1-1.17.686,5.915,5.915,0,0,1-2.479.488,2.906,2.906,0,0,1-2.172-.715,2.788,2.788,0,0,1-.578-1.252c-.124-.42-.263-.836-.423-1.244a17.874,17.874,0,0,0-1.923-3.607.944.944,0,0,0-1.259-.33.928.928,0,0,0-.33,1.259" transform="translate(-1864.057 3042.61)" fill="#5f2167"/>
    <path id="path176" d="M2243.408-2761.076a8.736,8.736,0,0,0,3.6-6.412c.053-.59-.868-.586-.92,0a7.75,7.75,0,0,1-3.148,5.618c-.478.341-.019,1.14.464.794" transform="translate(-2197.479 2853.454)" fill="#5f2167"/>
    <path id="path178" d="M2024.163-2795.648a19.374,19.374,0,0,0,2.476,6.246c.31.5,1.106.042.794-.464a18.618,18.618,0,0,1-2.383-6.027c-.119-.58-1.006-.334-.887.245" transform="translate(-1989.201 2880.414)" fill="#5f2167"/>
    <path id="path180" d="M2056.846-2711.263a3.291,3.291,0,0,0-2.509-1.809,4.191,4.191,0,0,0-3.086,1.227,5.792,5.792,0,0,0-1.716,2.83,7.658,7.658,0,0,0-.375,3.055,5.5,5.5,0,0,0,3.778,4.434,4.4,4.4,0,0,0,3.721-.063,4.623,4.623,0,0,0,1.948-2.383,9.953,9.953,0,0,0,.56-3.319c.014-.27.019-.539.033-.81.005-.111.014-.221.023-.332s-.005.046-.007.057c.012-.067.024-.133.039-.2a3.119,3.119,0,0,1,.713-1.322.978.978,0,0,0-.194-1.506,3.512,3.512,0,0,0-3.178-.514,5.742,5.742,0,0,0-2.838,2.238.966.966,0,0,0,.345,1.312.98.98,0,0,0,1.312-.344,3.738,3.738,0,0,1,1.691-1.356,3.791,3.791,0,0,1,.434-.106c-.087.009.154,0,.177,0,0,0,.308.019.146,0a1.752,1.752,0,0,1,.943.433q-.1-.753-.194-1.506a4.888,4.888,0,0,0-1.292,2.7c-.113.913-.1,1.842-.2,2.759a.827.827,0,0,1-.02.149c-.015.09-.031.18-.05.269a4.067,4.067,0,0,1-.153.537c-.019.053-.04.1-.06.157-.012.031-.088.211-.033.085s-.041.084-.056.116q-.062.13-.132.255a2.212,2.212,0,0,1-.669.821,1.973,1.973,0,0,1-1.116.36,3.9,3.9,0,0,1-1.245-.281l-.278-.1c-.035-.013-.193-.08-.047-.017s-.067-.032-.1-.05a4.818,4.818,0,0,1-.891-.538c.11.086-.071-.066-.1-.092-.075-.067-.148-.136-.219-.208a2.719,2.719,0,0,1-.359-.435,3.549,3.549,0,0,1-.464-2.689c.068-.34.153-.679.249-1.012a4.088,4.088,0,0,1,.364-.939,3.8,3.8,0,0,1,.9-1.112,3.982,3.982,0,0,1,.969-.578,1.144,1.144,0,0,1,1.074.143s.142.132.192.185c.031.032.059.067.09.1.1.11-.073-.11,0,0a3.641,3.641,0,0,1,.225.37.97.97,0,0,0,1.312.344.976.976,0,0,0,.344-1.311" transform="translate(-2012.993 2801.2)" fill="#5f2167"/>
    <path id="path182" d="M1665.907-1094.72a9.822,9.822,0,0,0-6.037-2.657,10.068,10.068,0,0,0-5.421,1.249,7.541,7.541,0,0,0-4.093,4.612,8.207,8.207,0,0,0,.879,5.722,7.6,7.6,0,0,0,5.013,3.988,30.915,30.915,0,0,0,7.8.422c2.306-.083,4.614-.033,6.921-.04,1.035,0,2.077,0,3.109-.1a5.809,5.809,0,0,0,2.43-.642,2.809,2.809,0,0,0,1.005-.986,7.287,7.287,0,0,0,.536-1.538c.155-.526.3-1.055.441-1.586a1.4,1.4,0,0,0-.964-1.7,1.405,1.405,0,0,0-1.7.964c-.214.8-.426,1.6-.687,2.38a2.922,2.922,0,0,1-.138.384c-.028,0,.213-.421.091-.227.02-.031.3-.321.133-.179a1.407,1.407,0,0,0-.11.111c-.154.177.244-.145.091-.067-.057.028-.112.068-.167.1s-.258.115-.02.019.019-.01-.038.009c-.141.045-.284.086-.429.118s-.31.041-.458.081c.191-.051.232-.029.027-.008q-.16.017-.321.029c-.464.036-.928.051-1.393.06-2.316.046-4.633-.03-6.948.01-1.9.033-3.8.184-5.7.081q-.456-.025-.909-.069c-.143-.014-.287-.03-.429-.046-.072-.009-.145-.017-.217-.027.151.02-.018,0-.075-.012a12.313,12.313,0,0,1-1.687-.345c-.117-.035-.23-.08-.347-.117-.146-.047.015.007.039.018l-.174-.083a5.873,5.873,0,0,1-.674-.393c-.084-.057-.275-.21-.09-.057-.086-.071-.172-.142-.255-.216a6.5,6.5,0,0,1-.525-.528c-.067-.076-.131-.154-.2-.232-.17-.2.124.182-.021-.03-.11-.162-.223-.321-.325-.489a8.89,8.89,0,0,1-.435-.823c-.133-.283.118.319-.006-.016-.043-.119-.087-.238-.129-.357a8.692,8.692,0,0,1-.326-1.166c-.011-.052-.061-.374-.041-.215s0-.03,0-.054c0-.062-.01-.123-.014-.184a6.593,6.593,0,0,1,.014-.842c-.015.219.02-.111.035-.181.03-.142.066-.283.108-.423s.089-.272.143-.4c-.011.026-.092.179-.015.047.05-.086.089-.179.137-.267a5.134,5.134,0,0,1,.375-.578c-.142.191-.01.021.064-.06s.169-.182.258-.269c.148-.144.307-.272.462-.408.116-.1-.077.06-.084.065.04-.027.078-.058.118-.085.091-.063.181-.126.273-.187a12.4,12.4,0,0,1,1.516-.847c.062-.029.126-.055.188-.085.129-.064-.175.071-.158.065.037-.012.073-.031.11-.045.177-.069.353-.135.533-.194a8.773,8.773,0,0,1,1.259-.316l.17-.028c-.052.009-.288.03-.017,0,.121-.012.242-.024.364-.031a7.934,7.934,0,0,1,.831-.011q.2.008.4.025c.068.006.136.013.2.02-.031,0-.182-.032-.019,0,.305.059.608.115.908.2.253.071.5.157.747.25s-.108-.057.125.053c.123.059.247.118.368.181a12.331,12.331,0,0,1,1.128.708c.08.054-.218-.178-.009-.006.06.049.12.1.179.148.108.092.214.188.318.285a1.4,1.4,0,0,0,1.952,0,1.4,1.4,0,0,0,0-1.952" transform="translate(-1632.846 1261.723)" fill="#5f2167"/>
    <path id="path184" d="M1776.519-1314.076a24.024,24.024,0,0,0-.418,11.44.929.929,0,0,0,1.132.643.938.938,0,0,0,.643-1.131,22.039,22.039,0,0,1,.418-10.462.921.921,0,0,0-1.775-.489" transform="translate(-1752.376 1468.797)" fill="#5f2167"/>
    <path id="path186" d="M1702.361-1793.087l5.375-5.993-1.016.421c6,.123,12,.35,18,.519q2.6.073,5.2.128a1.451,1.451,0,0,0,1.438-1.438,1.466,1.466,0,0,0-1.438-1.438c-4.121-.084-8.24-.217-12.36-.348q-3.052-.1-6.1-.184-1.547-.042-3.094-.079c-.495-.011-.991-.034-1.485-.032a1.607,1.607,0,0,0-1.277.533c-.216.221-.414.462-.621.692l-4.651,5.186a1.464,1.464,0,0,0,0,2.033,1.458,1.458,0,0,0,2.034,0" transform="translate(-1680.259 1932.641)" fill="#5f2167"/>
    <path id="path188" d="M3451.964-2468.753a18.363,18.363,0,0,0,10.339-7.26,11.115,11.115,0,0,0,1.875-8.1,21.965,21.965,0,0,0-1.175-3.8q-.86-2.4-1.776-4.774-2.715-7.05-5.848-13.932c-1.462-3.2-2.974-6.389-4.566-9.528a48.831,48.831,0,0,0-7.489-10.7q-.58-.641-1.181-1.262a1.394,1.394,0,0,0-1.952,0,1.407,1.407,0,0,0,0,1.952,45.275,45.275,0,0,1,7.58,10.137c1.714,3.2,3.237,6.508,4.764,9.8q1.006,2.166,1.958,4.357.349.8.692,1.6.174.406.346.812l.178.419c-.108-.255-.026-.062,0-.009q.067.162.136.325.806,1.927,1.583,3.866,1.822,4.557,3.45,9.19c.176.5.352,1.006.481,1.525.073.293.126.588.177.885-.049-.287.016.168.024.261.018.226.027.454.028.681,0,.348-.027.693-.06,1.04.03-.312-.018.1-.035.193-.03.164-.065.327-.1.49q-.1.426-.244.84c-.052.153-.111.3-.167.454-.022.062-.106.241.017-.035-.036.081-.071.162-.108.242a11.635,11.635,0,0,1-.826,1.485q-.217.332-.453.65c-.036.049-.075.109-.117.155.212-.231.087-.111.039-.052-.1.122-.2.244-.3.363a16.883,16.883,0,0,1-1.925,1.92q-.191.162-.385.32l-.174.138c-.265.211.207-.156.063-.048-.21.156-.419.314-.633.465-.413.291-.841.561-1.28.811q-.4.228-.817.433-.209.1-.422.2c-.073.034-.147.066-.219.1-.235.106.081-.028-.071.031a19.738,19.738,0,0,1-2.135.714,1.4,1.4,0,0,0-.964,1.7,1.406,1.406,0,0,0,1.7.964" transform="translate(-3338.069 2625.334)" fill="#5f2167"/>
    <path id="path190" d="M3523.379-1584.438a18.289,18.289,0,0,0,15.054,2.437,21.464,21.464,0,0,0,10.125-6.078,22.983,22.983,0,0,0,4.822-8.257,20.4,20.4,0,0,0-.859-15.2,18.726,18.726,0,0,0-8.524-8.685q-.442-.222-.9-.417a1.418,1.418,0,0,0-1.889.495,1.4,1.4,0,0,0,.5,1.889,18.08,18.08,0,0,1,2.008,1.022q.623.369,1.217.787.155.109.308.223c.06.043.118.089.178.133-.014-.01-.179-.141-.056-.043.245.2.488.393.725.6a17.385,17.385,0,0,1,1.321,1.282q.347.374.671.768c.033.04.3.369.179.218q.075.1.149.2a16.422,16.422,0,0,1,1.038,1.594q.347.6.648,1.235.08.17.158.34c.019.041.173.391.11.245s.084.208.106.264q.1.253.192.508a18.74,18.74,0,0,1,.553,1.8q.127.513.228,1.033.049.258.091.516c.012.073.022.146.034.219.014.1.015.1,0,0l.018.144a18.944,18.944,0,0,1,.053,3.93c-.012.141-.027.281-.042.421-.009.079-.019.157-.029.236.006-.05.042-.284,0-.02s-.087.555-.139.831q-.142.754-.343,1.494a20.985,20.985,0,0,1-.729,2.2q-.071.18-.146.36c-.055.135-.245.563-.006.02-.09.2-.178.411-.271.615q-.424.926-.94,1.807c-.209.36-.431.713-.662,1.059q-.182.273-.374.54-.113.159-.23.315c-.068.092-.276.355-.088.119a20.778,20.778,0,0,1-2.214,2.392q-.335.307-.684.6-.167.139-.338.274c-.049.039-.1.079-.147.117.195-.15-.037.025-.075.053-.49.364-1,.7-1.521,1.019q-.67.406-1.369.761-.519.263-1.051.5c-.039.017-.079.033-.117.051-.164.077.26-.105.089-.037-.1.038-.193.08-.291.119q-.327.13-.66.25a19.449,19.449,0,0,1-3.032.825q-.229.042-.459.079c-.061.01-.444.063-.286.043s-.031,0-.055.006l-.241.026q-.245.025-.489.044a16.934,16.934,0,0,1-1.91.037q-.466-.018-.929-.062c-.158-.015-.315-.033-.473-.052-.231-.028.188.035-.042-.007-.114-.021-.229-.036-.343-.056a16.106,16.106,0,0,1-2.011-.483q-.485-.149-.959-.329c-.122-.046-.242-.093-.362-.141-.253-.1-.071-.029-.019-.007-.094-.04-.187-.082-.28-.124q-.738-.335-1.443-.74c-.4-.226-.78-.47-1.157-.726a1.389,1.389,0,0,0-1.889.5,1.414,1.414,0,0,0,.5,1.888" transform="translate(-3417.067 1760.434)" fill="#5f2167"/>
    <path id="path192" d="M3709.058-1302.418a6.086,6.086,0,0,0,4.926,2.889,9.225,9.225,0,0,0,6.029-2.243.925.925,0,0,0,0-1.3.943.943,0,0,0-1.3,0,7.325,7.325,0,0,1-4.616,1.708,4.1,4.1,0,0,1-3.447-1.982c-.642-.991-2.236-.07-1.589.929" transform="translate(-3594.484 1458.362)" fill="#5f2167"/>
    <path id="path194" d="M2958.149-1206.244a24.458,24.458,0,0,1,9.722-2.979,28,28,0,0,1,8.773.667,33.447,33.447,0,0,1,3.5,1.025.93.93,0,0,0,1.132-.643.939.939,0,0,0-.643-1.132,29.57,29.57,0,0,0-17.842-.839,26.712,26.712,0,0,0-5.567,2.313c-1.037.573-.11,2.163.929,1.589" transform="translate(-2877.823 1370.11)" fill="#5f2167"/>
    <path id="path196" d="M2348.615-1214.644a32.854,32.854,0,0,1,19.323,1.259,33.994,33.994,0,0,1,4.815,2.253.921.921,0,0,0,.929-1.589,35.683,35.683,0,0,0-19.9-4.6,33.637,33.637,0,0,0-5.66.9.921.921,0,0,0,.489,1.775" transform="translate(-2297.267 1376.072)" fill="#5f2167"/>
    <path id="path198" d="M1778.581-1241.15a9.754,9.754,0,0,1,7.389-.364.93.93,0,0,0,1.132-.643.94.94,0,0,0-.643-1.132,11.481,11.481,0,0,0-8.807.549.929.929,0,0,0-.33,1.259.939.939,0,0,0,1.259.33" transform="translate(-1753.9 1401.331)" fill="#5f2167"/>
    <path id="path200" d="M1863.382-1679.985q.019,3.7.038,7.4a.941.941,0,0,0,.475.828l7.131,3.144-.474-.828q.1,3.356.191,6.711c.035,1.231,1.953,1.236,1.917,0q-.1-3.356-.191-6.711a.948.948,0,0,0-.475-.828l-7.132-3.144q.238.414.475.828-.019-3.7-.038-7.4a.959.959,0,0,0-1.917,0" transform="translate(-1836.014 1817.71)" fill="#5f2167"/>
    <path id="path202" d="M2071.987-1597.8c-1.85,0-3.3-1.914-3.3-4.357s1.449-4.357,3.3-4.357a2.708,2.708,0,0,1,1.554.508l-.734,1.047a1.416,1.416,0,0,0-.821-.277c-1.095,0-2.02,1.41-2.02,3.079s.926,3.079,2.02,3.079a1.423,1.423,0,0,0,.821-.277l.734,1.047a2.709,2.709,0,0,1-1.554.508" transform="translate(-2031.636 1746.825)" fill="#5f2167"/>
    <path id="path204" d="M2156.79-1588.069l-.729-1.05a3.443,3.443,0,0,0,1.2-2.8,3.443,3.443,0,0,0-1.2-2.8l.729-1.05a4.668,4.668,0,0,1,1.748,3.85,4.669,4.669,0,0,1-1.747,3.85" transform="translate(-2114.887 1736.585)" fill="#5f2167"/>
    <path id="path206" d="M2191.325-1594.6h-.077l.038-1.277a1.174,1.174,0,0,0,.388-.051c.887-.273,1.453-1.742,1.487-3,.031-1.146-.349-2.529-1.114-2.833a1,1,0,0,0-.337-.068l.048-1.277a2.3,2.3,0,0,1,.762.159c1.583.63,1.951,2.845,1.919,4.055-.046,1.679-.813,3.706-2.389,4.191a2.43,2.43,0,0,1-.724.108" transform="translate(-2148.415 1743.585)" fill="#5f2167"/>
    <path id="path208" d="M2180.637-1442.063h0v-.613Z" transform="translate(-2138.302 1590.714)" fill="#000072"/>
    <path id="path210" d="M2155.206-1602.6h-.006l-2.486-.04.02-1.278,2.476.04,0,1.279" transform="translate(-2111.698 1744.348)" fill="#5f2167"/>
    <path id="path212" d="M2125.431-1596.716h-.009v-.614Z" transform="translate(-2085.693 1738.072)" fill="#000072"/>
    <path id="path214" d="M2146.421-1448.5v-1.279l2.411-.006.013,1.278-2.424.006" transform="translate(-2105.702 1597.485)" fill="#5f2167"/>
    <path id="path216" d="M2130.961-1441.93h-.007v-.613Z" transform="translate(-2090.965 1590.586)" fill="#000072"/>
    <path id="path218" d="M1928.394-3295.007c-.292,1.338-1.282,2.258-2.211,2.055s-1.446-1.452-1.154-2.789,1.282-2.258,2.211-2.055,1.447,1.452,1.154,2.79" transform="translate(-1894.675 3358.353)" fill="#fff"/>
    <path id="path222" d="M2575.7-3243.16c.586-4.562-1.931-8.644-5.622-9.118s-7.157,2.839-7.744,7.4,1.931,8.644,5.621,9.118,7.158-2.84,7.744-7.4" transform="translate(-2501.917 3314.998)" fill="#5f2167"/>
    <path id="path224" d="M2714.139-3168c-.2,1.545-1.229,2.686-2.3,2.548s-1.782-1.5-1.584-3.048,1.229-2.685,2.3-2.547,1.782,1.5,1.584,3.047" transform="translate(-2642.905 3237.567)" fill="#fff"/>
  </g>
</svg>
