<svg xmlns="http://www.w3.org/2000/svg" width="49.074" height="49.075" viewBox="0 0 49.074 49.075">
  <g id="matchShiba" transform="translate(-141.674 5336.362)">
    <g id="g10" transform="translate(139 -5338.654)">
      <g id="Group_12" data-name="Group 12" transform="translate(2.109 2.109)">
        <path id="path14" d="M1912.4-4962.118a24.538,24.538,0,0,1-24.537,24.538,24.538,24.538,0,0,1-24.537-24.538,24.537,24.537,0,0,1,24.537-24.537,24.537,24.537,0,0,1,24.537,24.537" transform="translate(-1862.765 4986.837)" fill="#3f2a56"/>
      </g>
      <g id="Group_11" data-name="Group 11" transform="translate(12.674 13.292)">
        <path id="path250" d="M2048.139-4695.909c-.984-6.7.418-11.018,1.269-12.89a1.673,1.673,0,0,1,2-.919c3.03.9,6.068,5.046,6.068,5.046a14.064,14.064,0,0,1,3.833-.533,14.064,14.064,0,0,1,3.833.533s3.038-4.147,6.068-5.046a1.673,1.673,0,0,1,2,.919c.85,1.872,2.254,6.187,1.269,12.89a12.719,12.719,0,0,1,.683,6.754,7.9,7.9,0,0,1-1.264,2.947c-1.754,2.49-5.408,4.252-12.584,4.253-7.269,0-10.918-1.811-12.647-4.343-2.83-4.145-.517-9.611-.517-9.611" transform="translate(-2047.249 4709.787)" fill="#fea726"/>
        <path id="path252" d="M2072.7-3980.01a8.641,8.641,0,0,0,.6,1.411c1.729,2.532,5.378,4.572,12.648,4.572h.008c7.176,0,10.822-1.992,12.575-4.48a7.9,7.9,0,0,0,.667-1.5s.841-2.833-.678-4.608a2.8,2.8,0,0,0-4.579.358c-.956,1.376-3.158,1.118-4.347.175a5.332,5.332,0,0,0-3.647-1.45,5.333,5.333,0,0,0-3.647,1.45c-1.188.943-3.39,1.2-4.346-.175a2.8,2.8,0,0,0-4.579-.358c-1.52,1.774-.679,4.608-.679,4.608" transform="translate(-2071.897 4002.088)" fill="#fff"/>
        <path id="path256" d="M2581.314-3869.225c-1.832,0-1.973-2.756-1.973-2.756s1.981.476,1.981-2.036c0,2.511,1.981,2.036,1.981,2.036s-.158,2.756-1.99,2.756" transform="translate(-2567.267 3892.982)" fill="#3f2a56" opacity="0"/>
        <path id="path258" d="M2611.171-3748.5c-1.071,0-1.3,1.291-1.3,1.291a1.239,1.239,0,0,0,1.3.558,1.238,1.238,0,0,0,1.3-.558s-.226-1.291-1.3-1.291" transform="translate(-2597.108 3770.311)" fill="#6d3874" opacity="0"/>
        <path id="path260" d="M2565.634-3885.692c.109.687.47,2.067,1.6,2.067s1.5-1.379,1.616-2.067a1.882,1.882,0,0,1-1.166-.38,1.743,1.743,0,0,1-.442-.522,1.743,1.743,0,0,1-.442.522A1.883,1.883,0,0,1,2565.634-3885.692Zm1.6,2.721c-2.117,0-2.293-2.941-2.3-3.066a.326.326,0,0,1,.117-.268.324.324,0,0,1,.285-.066,1.394,1.394,0,0,0,1.062-.217,1.84,1.84,0,0,0,.516-1.5.327.327,0,0,1,.327-.327.327.327,0,0,1,.327.327,1.84,1.84,0,0,0,.516,1.5,1.393,1.393,0,0,0,1.064.216.328.328,0,0,1,.285.068.326.326,0,0,1,.116.268c-.007.125-.2,3.064-2.316,3.064" transform="translate(-2553.189 3907.056)" fill="#3f2a56" opacity="0"/>
        <path id="path262" d="M2828.354-4101.387a1.96,1.96,0,0,0,1.712,2.137,1.96,1.96,0,0,0,1.711-2.137,1.96,1.96,0,0,0-1.711-2.136,1.96,1.96,0,0,0-1.712,2.136" transform="translate(-2810.629 4117.28)" fill="#3f2a56" opacity="0"/>
        <path id="path266" d="M2584.5-3947.584c.033-.464.566-.7,1.053-.814a3.478,3.478,0,0,1,1.62,0c.487.117,1.019.351,1.053.814.044.6-.876,1.021-1.439,1.22a1.261,1.261,0,0,1-.847,0c-.563-.2-1.483-.618-1.439-1.22" transform="translate(-2572.31 3965.769)" fill="#3f2a56" opacity="0"/>
        <path id="path270" d="M2511.584-3883.234a1.987,1.987,0,0,1-1.524-.572,1.946,1.946,0,0,1-.471-1.357.327.327,0,0,1,.35-.3.327.327,0,0,1,.3.35,1.293,1.293,0,0,0,.3.868,1.373,1.373,0,0,0,1.042.359,1.136,1.136,0,0,0,.9-.34,1.931,1.931,0,0,0,.345-1.3.328.328,0,0,1,.291-.359.326.326,0,0,1,.359.289,2.572,2.572,0,0,1-.507,1.809,1.771,1.771,0,0,1-1.385.559" transform="translate(-2499.096 3904.589)" fill="#3f2a56" opacity="0"/>
        <path id="path272" d="M2653.79-3883.25a1.772,1.772,0,0,1-1.385-.559,2.575,2.575,0,0,1-.507-1.809.326.326,0,0,1,.36-.289.327.327,0,0,1,.29.359,1.931,1.931,0,0,0,.345,1.3,1.137,1.137,0,0,0,.9.34,1.37,1.37,0,0,0,1.041-.36,1.292,1.292,0,0,0,.3-.87.328.328,0,0,1,.3-.347.327.327,0,0,1,.348.3,1.948,1.948,0,0,1-.471,1.357,1.986,1.986,0,0,1-1.524.572" transform="translate(-2638.167 3904.604)" fill="#3f2a56" opacity="0"/>
        <path id="path274" d="M2357.551-4101.387a1.96,1.96,0,0,1-1.712,2.137,1.96,1.96,0,0,1-1.711-2.137,1.959,1.959,0,0,1,1.711-2.136,1.96,1.96,0,0,1,1.712,2.136" transform="translate(-2347.164 4117.28)" fill="#3f2a56" opacity="0"/>
        <path id="path282" d="M2954.283-4594.586a22.6,22.6,0,0,0-3.726-2.6.462.462,0,0,1-.208-.572c.385-1,2.169-3.3,3.141-3.653,1.443-.526,1.606,4.432,1.559,6.488a.464.464,0,0,1-.767.341" transform="translate(-2929.826 4603.913)" fill="#ffe900"/>
        <path id="path284" d="M2174.943-4594.586a22.584,22.584,0,0,1,3.726-2.6.463.463,0,0,0,.208-.572c-.385-1-2.169-3.3-3.141-3.653-1.444-.526-1.606,4.432-1.559,6.488a.464.464,0,0,0,.767.341" transform="translate(-2171.289 4603.913)" fill="#ffe900"/>
      </g>
    </g>
  </g>
</svg>
