<svg xmlns="http://www.w3.org/2000/svg" width="175.161" height="199.424" viewBox="0 0 175.161 199.424">
  <g id="shiba" transform="translate(0 0)">
    <path id="path24" d="M4040.621-3250.044c-3.542.957-7.441,1.01-8.973-.395a6.376,6.376,0,0,1-1.928-4.4,6.129,6.129,0,0,1,.463-2.643,4.644,4.644,0,0,1,1.993-2.26,4.913,4.913,0,0,1,3.743-.377,10.979,10.979,0,0,0,3.235-.266c3.548-.574,7.3-1.179,9.042,2.553a3.57,3.57,0,0,1-.168,3.428,7.689,7.689,0,0,1-3.218,2.769A21.341,21.341,0,0,1,4040.621-3250.044Zm-5.836-3.8c.315.288,2.412-.073,4.639-.675a16.6,16.6,0,0,0,3.247-1.213c.289-.15.542-.295.75-.429a15.8,15.8,0,0,0-3.542.344,12.866,12.866,0,0,1-5.12.176.972.972,0,0,0-.317-.057c-.019.01.017.009,0,.047a1.54,1.54,0,0,0-.1.648,1.683,1.683,0,0,0,.442,1.159h0" transform="translate(-3873.396 3332.604)" fill="#3f2a56"/>
    <path id="path26" d="M4080.114-3204.651c2.056,1.887,14.406-1.458,12.885-4.714-1.588-3.4-7.833-.266-10.762-1.027-3.631-.943-4.18,3.854-2.124,5.741h0" transform="translate(-3920.292 3285.112)" fill="#e2e2e2" fill-rule="evenodd"/>
    <path id="path28" d="M4009.545-3452.8c-3.03,1.786-6.511,2.9-8.533,2.414a2.477,2.477,0,0,1-.649-.233,6.912,6.912,0,0,1-3.154-4.017,6.812,6.812,0,0,1-.277-2.855,4.9,4.9,0,0,1,1.424-2.954,5.168,5.168,0,0,1,3.643-1.407,12.034,12.034,0,0,0,3.262-1.23c3.469-1.614,7.129-3.316,9.961-.123l.166.181a3.775,3.775,0,0,1,.737,3.56,8.51,8.51,0,0,1-2.633,3.794,24.063,24.063,0,0,1-3.814,2.784Zm-6.847-2.209c.365.086,2.276-.869,4.318-2.073l.13-.072a19.1,19.1,0,0,0,3-2.173c.235-.216.445-.42.617-.607a19.882,19.882,0,0,0-3.4,1.37,13.778,13.778,0,0,1-5.267,1.676l-.276,0c-.029.03.042-.02.037.016a1.871,1.871,0,0,0,.1.753,1.913,1.913,0,0,0,.721,1.1l.019.008h0" transform="translate(-3842.108 3527.194)" fill="#3f2a56"/>
    <path id="path30" d="M4051.865-3400.656c2.408,1.264,14.344-5.735,11.949-8.617-2.573-3.1-8.174,2-11.423,2.066-4.026.08-2.934,5.287-.527,6.551h0" transform="translate(-3892.453 3475.033)" fill="#e2e2e2" fill-rule="evenodd"/>
    <path id="path32" d="M3968.8-3673.9c-1.859,3.582-4.728,6.862-6.911,7.059h-.01a6.656,6.656,0,0,1-4.861-1.743,6.752,6.752,0,0,1-1.7-2.3,5.026,5.026,0,0,1-.334-3.182,5.194,5.194,0,0,1,2.472-3.26,11.667,11.667,0,0,0,2.188-2.7c2.168-3.157,4.464-6.5,8.643-5.175a3.656,3.656,0,0,1,2.463,2.493,7.911,7.911,0,0,1-.183,4.438A23.512,23.512,0,0,1,3968.8-3673.9Zm-7.358,2.115c.444-.04,1.747-2.1,2.939-4.393a18.632,18.632,0,0,0,1.4-3.413l.112-.429a20.058,20.058,0,0,0-2.16,2.818,13.873,13.873,0,0,1-3.647,4.1,2.582,2.582,0,0,0-.253.165c0,.012.018.013.042.067a1.771,1.771,0,0,0,.45.568,1.715,1.715,0,0,0,1.115.518h0" transform="translate(-3802.064 3737.32)" fill="#3f2a56"/>
    <path id="path34" d="M4012.134-3617.958c2.839-.256,9.3-12.43,5.876-13.511-3.841-1.214-6.007,5.894-8.768,7.609-3.422,2.125.053,6.158,2.892,5.9h0" transform="translate(-3852.531 3685.967)" fill="#e2e2e2" fill-rule="evenodd"/>
    <path id="path36" d="M3818.578-3719.077c-.432,3.784-1.939,7.337-4.3,8.187a8.135,8.135,0,0,1-5.058.141,6.113,6.113,0,0,1-2.6-1.56,4.672,4.672,0,0,1-1.343-3.108,5.674,5.674,0,0,1,1.112-3.477,11.845,11.845,0,0,0,.913-3.365c.732-3.852,1.506-7.92,5.995-8.183a4.252,4.252,0,0,1,4.015,2.235,10.531,10.531,0,0,1,1.307,4.344A22.128,22.128,0,0,1,3818.578-3719.077Zm-5.977,3.514c.4-.144.791-1.966,1.032-4.078a17.13,17.13,0,0,0,.039-3.7,7.233,7.233,0,0,0-.424-1.917,13.688,13.688,0,0,0-1.063,3.911,13.872,13.872,0,0,1-1.711,5.272,2.065,2.065,0,0,0-.216.37,1.465,1.465,0,0,0,.439.2,3.072,3.072,0,0,0,1.905-.065h0" transform="translate(-3659.499 3780.165)" fill="#3f2a56"/>
    <path id="path38" d="M3863.8-3662.8c3.313-1.189,4.145-14.978-.009-14.734-4.021.237-3.152,7.8-5,10.478-2.288,3.315,1.7,5.444,5.007,4.256h0" transform="translate(-3709.865 3729.74)" fill="#e2e2e2" fill-rule="evenodd"/>
    <path id="path52" d="M3578.585-3631.384c.3.6.556.976.7.99.013,0,.056-.041.19-.108a3.091,3.091,0,0,0,1.034-.906,2.563,2.563,0,0,0,.531-1.252,1.711,1.711,0,0,0-.192-.942,25.47,25.47,0,0,1-1.593-4.252c-.319-1.05.118-1.8-.168-1.907a4.161,4.161,0,0,1-.256.465,6.779,6.779,0,0,0-.961,2.936c-.042.354-.068.675-.072.954A8.911,8.911,0,0,0,3578.585-3631.384Zm.25,5.935a6.082,6.082,0,0,1-4.707-3.717,13.921,13.921,0,0,1-1.3-6.319c.01-.537.041-1.02.09-1.44a11.815,11.815,0,0,1,1.78-5.137,5.364,5.364,0,0,1,4.476-2.677h.01a4.205,4.205,0,0,1,.424.021l.1.015c2.759.38,3.433,2.591,4.289,5.406a21.225,21.225,0,0,0,1.279,3.455,6.56,6.56,0,0,1,.7,3.629,7.514,7.514,0,0,1-1.486,3.762,8.188,8.188,0,0,1-2.786,2.387,5.334,5.334,0,0,1-2.875.614h0" transform="translate(-3437.983 3698.481)" fill="#3f2a56"/>
    <path id="path54" d="M3629.385-3577.587c-2.14-.2-3.817-3.568-3.745-7.523s2.017-7.034,4-6.8,2,4.079,3.745,7.524-1.865,7-4,6.8h0" transform="translate(-3488.311 3648.148)" fill="#e2e2e2" fill-rule="evenodd"/>
    <path id="path56" d="M3117.311-3448.229l-14.361-26a3.5,3.5,0,0,1-.271-.57,3.458,3.458,0,0,1,2.055-4.436c6.194-2.274,11.044-4.37,15.139-7.194a40.449,40.449,0,0,0,10.964-11.659,15.337,15.337,0,0,1,11.507-7.265,11.379,11.379,0,0,1,6.2,1.3,11.262,11.262,0,0,1,4.641,4.749c2.166,4.109,2.51,10.365-.714,18.627a60.779,60.779,0,0,1-12.668,20.02,80.472,80.472,0,0,1-17.708,13.745l-.095.054A3.454,3.454,0,0,1,3117.311-3448.229Zm-6.437-25.947,10.738,19.446a69.92,69.92,0,0,0,13.191-10.689,54.008,54.008,0,0,0,11.236-17.775c2.4-6.147,2.357-10.393,1.036-12.9a4.422,4.422,0,0,0-1.8-1.882,4.535,4.535,0,0,0-2.469-.487,8.48,8.48,0,0,0-6.207,4.156,47.033,47.033,0,0,1-12.8,13.551,63,63,0,0,1-12.919,6.578h0" transform="translate(-2989.728 3565.676)" fill="#3f2a56"/>
    <path id="path58" d="M3176.005-3405.937q7.207,13.05,14.414,26.1c12.579-7.445,23.022-16.937,28.916-32.047,8.005-20.524-8.349-25.184-15.537-14.259-7.5,11.4-14.925,15.48-27.793,20.2h0" transform="translate(-3059.81 3495.621)" fill="#e2e2e2" fill-rule="evenodd"/>
    <path id="path60" d="M3221.552-3066.9l12.274,22.226c10.608-6.279,19.7-14.015,25.821-25.349-5.136.786-13.668-3.278-15.284-8.014-.954-2.795-1.7-2.692-3.849-.661-5.352,5.062-11.493,9.409-18.963,11.8h0" transform="translate(-3103.215 3160.461)" fill="#bcbcbc" fill-rule="evenodd"/>
    <path id="path62" d="M710.059-1808.662a6.325,6.325,0,0,1,5.86-.248,6.243,6.243,0,0,1,2.55,2.777,8.1,8.1,0,0,1,.818,3.061,6.517,6.517,0,0,1-.7,3.436,5.868,5.868,0,0,1-2.657,2.554,18.323,18.323,0,0,0-2.817,1.864c-2.225,1.681-3.964,3-6.516,1.716l-.224-.12c-.072-.037-.143-.078-.213-.122a5.565,5.565,0,0,1-2.395-4.495,10.16,10.16,0,0,1,1.139-5.09,12.409,12.409,0,0,1,.638-1.13A11.977,11.977,0,0,1,710.059-1808.662Zm3.531,4.175c-.231-.122-.7,0-1.28.287a6.9,6.9,0,0,0-2.563,2.442,7.333,7.333,0,0,0-.383.66,5.147,5.147,0,0,0-.611,2.546,1.459,1.459,0,0,0,.1.6c.218.041.436-.649,1.241-1.257a22.175,22.175,0,0,1,3.619-2.352.96.96,0,0,0,.446-.4,1.577,1.577,0,0,0,.134-.813,3.029,3.029,0,0,0-.309-1.143,1.446,1.446,0,0,0-.4-.565h0" transform="translate(-703.747 1949.515)" fill="#3f2a56"/>
    <path id="path64" d="M765.445-1755.985c-1.982-1.045-5.166.562-7.111,3.59s-1.8,6.44.067,7.375,3.825-1.966,7.111-3.59,1.915-6.33-.067-7.375h0" transform="translate(-754.438 1898.802)" fill="#e2e2e2" fill-rule="evenodd"/>
    <path id="path66" d="M757.147-1738.578a6.325,6.325,0,0,1,5.674-1.473,6.272,6.272,0,0,1,3.074,2.175,8.116,8.116,0,0,1,1.443,2.827,6.518,6.518,0,0,1,.039,3.506,5.865,5.865,0,0,1-2.057,3.053,18.079,18.079,0,0,0-2.37,2.414c-1.793,2.079-3.2,3.71-5.873,3.082l-.136-.031c-.149-.039-.306-.088-.466-.147a5.566,5.566,0,0,1-3.3-3.892,10.156,10.156,0,0,1,.043-5.209,12.38,12.38,0,0,1,.388-1.245A12.032,12.032,0,0,1,757.147-1738.578Zm4.325,3.341c-.252-.069-.69.147-1.193.553a6.881,6.881,0,0,0-1.99,2.917l0,.009c-.1.27-.175.509-.228.718a5.172,5.172,0,0,0-.062,2.626,1.756,1.756,0,0,0,.213.558c.22.007.3-.716.964-1.488a22.19,22.19,0,0,1,3.036-3.061.973.973,0,0,0,.355-.489,1.582,1.582,0,0,0-.039-.825,3.021,3.021,0,0,0-.543-1.045,1.5,1.5,0,0,0-.5-.472h-.009" transform="translate(-750.552 1883.496)" fill="#3f2a56"/>
    <path id="path68" d="M812.762-1686.913c-2.158-.6-4.932,1.637-6.2,5.006s-.4,6.675,1.617,7.2,3.325-2.726,6.2-5.006.54-6.591-1.617-7.2h0" transform="translate(-801.169 1832.767)" fill="#e2e2e2" fill-rule="evenodd"/>
    <path id="path70" d="M1108.488-1699.552c-.363-.538-.715-.874-.969-.88a1.507,1.507,0,0,0-.634.31,2.986,2.986,0,0,0-.823.835,1.582,1.582,0,0,0-.281.776.994.994,0,0,0,.2.579,22.3,22.3,0,0,1,2.005,3.822c.409.933.243,1.647.473,1.693.054-.01.191-.184.374-.467a5.135,5.135,0,0,0,.708-2.517,7.278,7.278,0,0,0-.009-.774A6.883,6.883,0,0,0,1108.488-1699.552Zm-.852-5.871a6.325,6.325,0,0,1,5,3.072,11.985,11.985,0,0,1,1.89,5.882,12.21,12.21,0,0,1,.009,1.283,10.179,10.179,0,0,1-1.492,5,5.571,5.571,0,0,1-4.291,2.758,4.588,4.588,0,0,1-.487,0c-2.854-.13-3.733-2.132-4.857-4.691a18.08,18.08,0,0,0-1.555-3,5.858,5.858,0,0,1-1.064-3.516,6.505,6.505,0,0,1,1.064-3.339,8.111,8.111,0,0,1,2.212-2.284,6.223,6.223,0,0,1,3.57-1.17h0" transform="translate(-1082.128 1850.314)" fill="#3f2a56"/>
    <path id="path72" d="M1158.2-1652.316c2.24.055,4.234,3.012,4.454,6.6s-1.574,6.5-3.658,6.4-2.379-3.583-4.455-6.6,1.418-6.46,3.658-6.4h0" transform="translate(-1132.746 1799.703)" fill="#e2e2e2" fill-rule="evenodd"/>
    <path id="path74" d="M835.391-1673.8a6.331,6.331,0,0,1,5.48-2.1,6.269,6.269,0,0,1,3.3,1.819,8.111,8.111,0,0,1,1.751,2.645,6.507,6.507,0,0,1,.428,3.478,5.871,5.871,0,0,1-1.705,3.265,14.863,14.863,0,0,0-1.277,1.693c-1.9,2.737-4.067,5.86-7.616,4.348a6.157,6.157,0,0,1-3.323-4.22,10.994,10.994,0,0,1,.018-5.5A11.976,11.976,0,0,1,835.391-1673.8Zm4.678,2.826c-.257-.041-.665.221-1.116.678a6.9,6.9,0,0,0-1.653,3.132,5.985,5.985,0,0,0-.057,2.975c.142.52.31.865.466.931.189.081.737-1.417,1.548-2.586a17.674,17.674,0,0,1,1.865-2.4.968.968,0,0,0,.3-.525,1.591,1.591,0,0,0-.134-.816,3.027,3.027,0,0,0-.655-.98,1.473,1.473,0,0,0-.549-.41h-.01" transform="translate(-826.057 1822.241)" fill="#3f2a56"/>
    <path id="path76" d="M891.107-1622.762c-2.212-.359-4.718,2.179-5.6,5.669-.8,3.163.137,6.079,1.857,6.813,2.369,1.01,4.475-3.842,6.153-5.513,2.6-2.587-.2-6.61-2.414-6.969h0" transform="translate(-876.693 1771.569)" fill="#e2e2e2" fill-rule="evenodd"/>
    <path id="path78" d="M854.881-2643.737c6.2-5.76,13.219-10.264,20.233-11.112a11.371,11.371,0,0,1,9.137,2.066,13.6,13.6,0,0,1,4.516,5.942,15.688,15.688,0,0,1,.9,8.107c-.744,5.067-3.871,10.719-10.648,15.828-1.426,1.075-3.112,2.309-4.8,3.541-6.513,4.767-13.054,9.555-17.519,15.21a16.545,16.545,0,0,1-12.716,6.608,11.375,11.375,0,0,1-5.777-1.519,9.954,9.954,0,0,1-4.114-4.7c-1.553-3.6-1.365-8.734,1.878-15.211A98.332,98.332,0,0,1,854.881-2643.737ZM876.026-2648c-5.387.61-11.163,4.416-16.44,9.32a90.591,90.591,0,0,0-17.447,22.792c-2.207,4.408-2.505,7.5-1.689,9.4a3.107,3.107,0,0,0,1.275,1.478,4.505,4.505,0,0,0,2.289.573,9.626,9.626,0,0,0,7.281-3.985c5.078-6.431,11.976-11.48,18.845-16.507,1.506-1.1,3.009-2.2,4.714-3.488,5.137-3.873,7.465-7.868,7.971-11.312a8.83,8.83,0,0,0-.464-4.565,6.647,6.647,0,0,0-2.189-2.914,4.592,4.592,0,0,0-3.766-.855,3.339,3.339,0,0,1-.378.063v0h0" transform="translate(-827.069 2755.342)" fill="#3f2a56"/>
    <path id="path80" d="M945.513-2581.392c-15.233,1.726-31.664,24.167-36.591,34-8.5,16.979,7.154,21.005,14.942,11.141,5.91-7.487,14.806-13.245,22.936-19.374,16.753-12.63,7.96-27.882-1.287-25.771h0" transform="translate(-896.935 2685.299)" fill="#eee" fill-rule="evenodd"/>
    <path id="path82" d="M1238.079-2505.378c3.25-.157,12.6,3.475,9.022,14.619,4.42-3.62,9.336-6.9,13.888-10.454,19.822-15.459,4.366-38.827-23.176-8.617-1.91,2.1-2.616,4.589.266,4.452h0" transform="translate(-1211.124 2630.891)" fill="#bcbcbc" fill-rule="evenodd"/>
    <path id="path84" d="M2163.71-1351.946c-4.659-.814-8.743-3.322-10.108-7.037-.035-.1-.068-.211-.094-.321a43.071,43.071,0,0,1-.95-5.093,35.1,35.1,0,0,1,1.91-17.216c2.053-5.065,5.412-8.555,9.316-9.521a9.459,9.459,0,0,1,1.1-.209l.377-.041c4.107-.362,7.979,1.574,11.021,5.786,2.654,3.676,4.68,9.192,5.579,16.493.09.74.17,1.487.236,2.236.488,5.515-1.5,9.41-4.653,11.929a15.243,15.243,0,0,1-6.661,2.951A19.88,19.88,0,0,1,2163.71-1351.946Zm-4.354-9.021c.628,1.482,2.805,2.572,5.4,3.024a13.726,13.726,0,0,0,4.885-.02,9.21,9.21,0,0,0,4.021-1.737c1.633-1.3,2.65-3.454,2.368-6.646q-.093-1.057-.212-2.022c-.771-6.251-2.385-10.809-4.462-13.685-1.69-2.34-3.642-3.434-5.572-3.264l-.163.016a3.471,3.471,0,0,0-.388.067c-1.958.484-3.81,2.651-5.129,5.905a28.99,28.99,0,0,0-1.506,14.194,37.127,37.127,0,0,0,.756,4.168h0" transform="translate(-2084.172 1551.074)" fill="#3f2a56"/>
    <path id="path86" d="M2218.161-1298.261c2.8,7.606,23.938,8.449,22.607-6.577-1.342-15.2-7.363-22.51-13.812-21.716-6.976.86-12.439,13.578-8.8,28.293h0" transform="translate(-2145.876 1489.306)" fill="#bcbcbc" fill-rule="evenodd"/>
    <path id="path88" d="M2292.047-744.558c4.446,3.233,13.319,3.519,17.713-1.13-4.959-5.041-14.843-3.069-17.713,1.13h0" transform="translate(-2217.398 938.539)" fill="#e2e2e2" fill-rule="evenodd"/>
    <path id="path90" d="M1590.466-2970.075a99.521,99.521,0,0,0,31.174-13.219,3.455,3.455,0,0,1,4.669.692c7.024,8.829,14.7,22.838,17.792,36.765,2.147,9.678,2.1,19.374-1.794,27.48a33.85,33.85,0,0,1,8.718,9.308c3.881,5.944,6.152,12.69,6.49,16.794a15.269,15.269,0,0,1-3.088,11.064,12.684,12.684,0,0,1-5.628,4.013,12.161,12.161,0,0,1-6.769.4,12.63,12.63,0,0,1-5.873-3.159q-.755.454-1.511.831a18.524,18.524,0,0,1-14.669,1.05c-4.678-1.594-9.272-5.053-13.553-10.46q-1.577-1.991-3.093-4.325c-2.918,6.827-7.62,11.413-12.851,13.761a20.56,20.56,0,0,1-10.234,1.778,19.813,19.813,0,0,1-9.744-3.608c-5.814-4.118-10.05-11.654-10.268-22.5-7.723-6.835-10.92-16.154-11.631-26.909-.71-10.736,1.089-22.833,3.23-35.256a3.46,3.46,0,0,1,3.848-2.983A100.314,100.314,0,0,0,1590.466-2970.075Zm32.283-5.8a105.264,105.264,0,0,1-30.769,12.532,105.832,105.832,0,0,1-33.855,2.007c-1.827,10.914-3.231,21.436-2.626,30.584.626,9.477,3.439,17.521,10.33,23.024a3.45,3.45,0,0,1,1.3,2.959c-.111,9.084,3,15.152,7.353,18.233a12.924,12.924,0,0,0,6.365,2.337,13.721,13.721,0,0,0,6.827-1.183c5.167-2.319,9.67-7.9,11.242-16.841a3.459,3.459,0,0,1,4-2.812,3.454,3.454,0,0,1,2.5,1.866,59.6,59.6,0,0,0,6.419,10.38c3.413,4.311,6.92,7.016,10.363,8.188a11.842,11.842,0,0,0,9.37-.7,17.665,17.665,0,0,0,3.079-1.968,3.444,3.444,0,0,1,4.839.568c.071.089.136.181.2.274l.007,0a6.344,6.344,0,0,0,3.857,2.919,5.32,5.32,0,0,0,2.959-.184,5.735,5.735,0,0,0,2.544-1.822,8.519,8.519,0,0,0,1.575-6.171c-.264-3.211-2.144-8.645-5.383-13.6-2.379-3.646-5.456-6.943-9.081-8.705a3.451,3.451,0,0,1-1.608-4.608,3.415,3.415,0,0,1,.2-.365c4.466-6.926,4.68-16.082,2.617-25.381-2.576-11.613-8.656-23.335-14.621-31.524h0" transform="translate(-1508.745 3068.709)" fill="#3f2a56"/>
    <path id="path92" d="M1693.653-2910.433c-20.694,13.108-42.879,18.437-68.342,15.329-4.232,24.522-7.141,47.681,8.416,60.1-.54,31.058,33.5,32.6,38.638,3.4,10.345,20.741,23.454,25.782,34.463,17.065,5.636,8.731,18.269,4.491,17.288-7.407-.529-6.419-6.521-20.329-16.411-25.134,11.672-18.094-2.158-48.4-14.052-63.349h0" transform="translate(-1578.793 2998.687)" fill="#e2e2e2" fill-rule="evenodd"/>
    <path id="path94" d="M2108.095-1284.838c8.755,16.907,19.389,22.8,29.04,18.838-13.58.341-24.808-13.77-18.372-22.557A54.334,54.334,0,0,1,2108.095-1284.838Zm-29.526,17.357c10.086,6.245,24.93.625,28.7-17.179a37.59,37.59,0,0,1-11.691.6c9.277,6.634-2.359,19.323-17.012,16.58h0" transform="translate(-2013.952 1453.039)" fill="#bcbcbc" fill-rule="evenodd"/>
    <path id="path96" d="M2700.164-2619.767c5.548,8.793,9.291,20.731,10.813,32.481,1.53,11.81.816,23.485-2.561,31.65l-2.6-1.071c3.188-7.709,3.844-18.865,2.373-30.227s-5.075-22.885-10.4-31.332l2.384-1.5h0" transform="translate(-2604.062 2721.683)" fill="#3f2a56"/>
    <path id="path98" d="M2070.211-2506.167a76.172,76.172,0,0,0,2.953,34.588,88.018,88.018,0,0,0,13.89,25.83l-2.241,1.711a90.843,90.843,0,0,1-14.331-26.67,78.952,78.952,0,0,1-3.064-35.845l2.793.386h0" transform="translate(-2002.558 2613.791)" fill="#3f2a56"/>
    <path id="path100" d="M1630.044-2583.777q-2.348-.191-4.733-.483c-4.232,24.521-7.141,47.68,8.416,60.1-.115,6.616,1.343,11.887,3.751,15.812-1.727-6.137-1.817-13.155-.081-17.059-14.155-9.837-14.627-35.825-7.353-58.369h0" transform="translate(-1578.793 2687.844)" fill="#fff" fill-rule="evenodd"/>
    <path id="path102" d="M2891.565-2871.939c-2.5,1.583-6.988,3.67-9.533,5.024,14.212,15.283,22.9,36.668,20.909,51.666-.523,3.92-5.531,5.865-8.447,9.857-3.8,5.2,8.531,14.8,13.116,12.99,1.4-.55,3.168-2.754,2.94-6.3-.16-2.47.691-4.882,2.715-.913,2.9,5.685,1.871,14.532-3.838,23.868a9.158,9.158,0,0,0,4.489,2.36c-2.046-4.189,7.146-11.147,10.659-7.088a13.755,13.755,0,0,0,.4-4.784c-.529-6.419-6.521-20.328-16.411-25.135,8.492-20.131-6.362-47.392-17-61.54h0" transform="translate(-2779.654 2962.003)" fill="#bcbcbc" fill-rule="evenodd"/>
    <path id="path104" d="M1559.519-2337.6c-.2-1.855-.322-3.8-.365-5.813a2.951,2.951,0,0,1,.008-.508,2.969,2.969,0,0,1,3.256-2.65,142.593,142.593,0,0,0,44.639-2.067,138.82,138.82,0,0,0,40.547-15.7,3.159,3.159,0,0,1,.558-.244,2.97,2.97,0,0,1,3.743,1.906c.682,2.1,1.283,4.232,1.78,6.375.455,1.966.825,3.969,1.093,6a2.968,2.968,0,0,1-1.306,3,122.486,122.486,0,0,1-43.014,16.9,134.3,134.3,0,0,1-47.589.8,2.973,2.973,0,0,1-2.406-2.278A51.542,51.542,0,0,1,1559.519-2337.6Zm5.713-2.744q.077,1.061.193,2.116.173,1.581.436,3.089a128.94,128.94,0,0,0,43.48-1.095,117.436,117.436,0,0,0,39.3-15.025q-.305-1.826-.745-3.716-.275-1.187-.6-2.381a143.573,143.573,0,0,1-39.006,14.532,147.139,147.139,0,0,1-43.057,2.48h0" transform="translate(-1518.943 2478.636)" fill="#3f2a56"/>
    <path id="path106" d="M1622.3-2283.375a55.6,55.6,0,0,0,1.243,11.087c30.049,5.073,63.894-1.284,88.5-17.257a66.851,66.851,0,0,0-2.776-11.969c-26.527,15.21-54.9,21.482-86.966,18.139h0" transform="translate(-1579.131 2418.387)" fill="#bcbcbc" fill-rule="evenodd"/>
    <path id="path108" d="M1622.3-1915.568l.008.363.017.578.017.483.017.391.009.18.018.359.01.179.025.415.031.456v.019l.012.177.02.252.036.454.015.176.028.307.056.566.041.374q.036.335.076.666l.021.173.022.171q.039.306.083.611l.01.072.025.17.005.035c.032.215.065.429.1.642l.027.168.028.168.087.5.031.166.03.167c.042.22.084.441.129.661l.033.165,0,.008c.045.218.091.433.138.648l.037.163q2,.338,4.017.607a52.965,52.965,0,0,1-1.728-11.365q-1.759-.146-3.533-.329h0" transform="translate(-1579.131 2050.581)" fill="#fff" fill-rule="evenodd"/>
    <path id="path110" d="M3249.115-2253.82q4.039-2.027,7.835-4.348a69.169,69.169,0,0,0-3.21-11.88q-3.985,2.186-8.029,4.1a65.222,65.222,0,0,1,3.4,12.126h0" transform="translate(-3126.24 2388.401)" fill="#a1a1a1" fill-rule="evenodd"/>
    <path id="path112" d="M1644.333-2959.8a100,100,0,0,0,31.343-13.292,2.971,2.971,0,0,1,4.017.593c.738.928,1.475,1.9,2.266,2.994.736,1.019,1.461,2.078,2.215,3.237a2.968,2.968,0,0,1-.5,3.957c-9.605,8.2-22.082,13.929-35.393,16.908a95.475,95.475,0,0,1-41.093.267,2.966,2.966,0,0,1-2.291-3.348c.242-1.549.433-2.737.583-3.654.243-1.474.44-2.649.6-3.564a2.976,2.976,0,0,1,3.31-2.572A100.788,100.788,0,0,0,1644.333-2959.8Zm32.316-6.919a104.91,104.91,0,0,1-31.014,12.709,105.568,105.568,0,0,1-34.153,1.953l-.28,1.692a90.3,90.3,0,0,0,35.8-.828c11.456-2.562,22.215-7.288,30.773-13.965l-.626-.884-.5-.677h0" transform="translate(-1562.507 3058.906)" fill="#3f2a56"/>
    <path id="path114" d="M1737.485-2910.433c-20.694,13.108-42.879,18.436-68.342,15.33-.435,2.518-.813,4.811-1.2,7.29,25.231,5.645,55.27-.617,73.918-16.536a74.362,74.362,0,0,0-4.374-6.084h0" transform="translate(-1622.625 2998.687)" fill="#ffe900" fill-rule="evenodd"/>
    <path id="path116" d="M1673.876-2583.777l-.073-.005-1.029-.089-.071-.007h0l-.073-.007q-.517-.048-1.034-.1l-.072-.008h0l-.073-.008-.075-.009q-.481-.048-.963-.1l-.073-.008h0l-.074-.008q-.557-.062-1.116-.13l-.02.118-.021.116-.02.118-.02.117-.02.117-.02.117-.02.116-.019.116-.02.115-.017.1,0,.017-.019.115-.02.115-.02.115c-.331,1.947-.635,3.8-.943,5.78q1.892.424,3.818.756c.606-2.545,1.314-5.075,2.116-7.563h0" transform="translate(-1622.625 2687.844)" fill="#fdfcd5" fill-rule="evenodd"/>
    <path id="path118" d="M2891.958-2871.939h0c-.59.374-1.292.776-2.053,1.19q-3.693,2.09-7.457,3.855a83.483,83.483,0,0,1,5.731,6.882,70.116,70.116,0,0,0,8.327-5.418c-1.547-2.382-3.086-4.57-4.546-6.511h0" transform="translate(-2780.048 2962.003)" fill="#cfbd00" fill-rule="evenodd"/>
    <path id="path120" d="M3186.862-1658.7c-2.065-2.254-2.107-3.526-2.38-7.146-1.718,6.282-9.14,8.514-12.868,11.09-1.555,1.075-2.777,2.058-2.6,2.959.25,1.277,2.893.3,3.6-.083,2.516-1.351,3.083-2.7,4.114.893a22.317,22.317,0,0,0,1.575,4.272c1.521,3.172,3.081,1.816,2.3-1.2-1.728-6.711-.381-8.628,6.255-10.782h0" transform="translate(-3053.132 1812.599)" fill="#3f2a56" fill-rule="evenodd"/>
    <path id="path122" d="M3087.538-1074.471a17.523,17.523,0,0,1-8.042.317,2.768,2.768,0,0,1-2.414-3.082c.168-1.374.378-2.807.692-4.273a25.246,25.246,0,0,1,1.288-4.291,2.752,2.752,0,0,1,1.082-1.361,24.693,24.693,0,0,1,4.767-2.415,33.82,33.82,0,0,1,4.825-1.414v0a2.751,2.751,0,0,1,1.339.039,17.529,17.529,0,0,1,3.912,1.705c1.122.643,2.222,1.394,3.209,2.1a2.761,2.761,0,0,1,.714,3.753l-.132.2a30.614,30.614,0,0,1-3.411,4.6l-.108.087A21.747,21.747,0,0,1,3087.538-1074.471Zm-4.556-4.881a12.214,12.214,0,0,0,3.107-.44,16.223,16.223,0,0,0,5.656-2.966,11.188,11.188,0,0,0,1.033-1.365l-.538-.317a14.12,14.12,0,0,0-2.027-.979,27.124,27.124,0,0,0-3.335,1.013,19.75,19.75,0,0,0-2.975,1.419,21.27,21.27,0,0,0-.723,2.624q-.107.5-.2,1.012h0" transform="translate(-2965.516 1264.817)" fill="#3f2a56"/>
    <path id="path124" d="M3135.952-1020.864c4.7.966,9.374-.328,13.721-3.77a33.79,33.79,0,0,0,3.046-4.226,21.98,21.98,0,0,0-6.267-3.39,25.449,25.449,0,0,0-8.673,3.44,30.523,30.523,0,0,0-1.828,7.947h0" transform="translate(-3021.639 1208.779)" fill="#ffe900" fill-rule="evenodd"/>
    <path id="path126" d="M3135.953-841.876l.178.035.028.006.221.041.025,0,.19.032.268.041.171.024.271.033.255.026.227.02.208.015.289.016.15.006c.121,0,.242.008.364.009h.091c.12,0,.239,0,.358,0l.123,0c.114,0,.229-.008.343-.014l.1-.006c.121-.007.241-.015.362-.026l.09-.008c.127-.011.255-.024.381-.039l.071-.008c.131-.016.26-.034.391-.053l.061-.009q.449-.068.9-.164h0a16.084,16.084,0,0,0,2.738-.855,20.194,20.194,0,0,1-8.5-1.684c-.146.858-.264,1.716-.367,2.559l.014,0h0" transform="translate(-3021.626 1029.793)" fill="#cfbd00" fill-rule="evenodd"/>
    <path id="path128" d="M1981.771-1093.965a19.185,19.185,0,0,1-12.366-4.818,2.766,2.766,0,0,1-1.028-2.835,19.4,19.4,0,0,1,1.555-4.2,19.144,19.144,0,0,1,2.43-3.752,2.771,2.771,0,0,1,1.2-.822,27.577,27.577,0,0,1,5.65-1.324,30.206,30.206,0,0,1,5.724-.173v.005a2.746,2.746,0,0,1,1.439.514c3.393,2.449,6.008,5.617,8.625,8.788l.251.3a2.761,2.761,0,0,1-.5,3.872A20.6,20.6,0,0,1,1981.771-1093.965Zm-7.512-8.007a13.609,13.609,0,0,0,7.6,2.492,14.656,14.656,0,0,0,7.1-1.735,36.955,36.955,0,0,0-5.168-5.2,24.244,24.244,0,0,0-3.884.168,22.059,22.059,0,0,0-3.78.819,14.317,14.317,0,0,0-1.261,2.073,14.887,14.887,0,0,0-.6,1.379h0" transform="translate(-1908.87 1284.734)" fill="#3f2a56"/>
    <path id="path130" d="M2027.141-1044.986c6.187,5.542,15.132,5.706,22,.4-2.569-3.112-5.119-6.242-8.3-8.54a25.89,25.89,0,0,0-10.293,1.346,17.369,17.369,0,0,0-3.4,6.794h0" transform="translate(-1964.942 1228.73)" fill="#ffe900" fill-rule="evenodd"/>
    <path id="path132" d="M2078.675-929.154l.274.166.078.047.286.163.068.038q.453.25.916.471l.072.034q.458.214.925.4l.1.038c.309.12.621.229.935.33l.084.026q.484.151.974.273l.058.014q.513.124,1.033.215h0a17.543,17.543,0,0,0,13.771-3.628c-.825-1-1.648-2-2.49-2.975-3.655,3.445-10.018,5.713-17.083,4.39h0" transform="translate(-2014.053 1114.712)" fill="#cfbd00" fill-rule="evenodd"/>
    <path id="path134" d="M1116.078-4768.936a49.69,49.69,0,0,0-36.127-12.251,49.657,49.657,0,0,0-34.191,16.863,49.69,49.69,0,0,0-12.252,36.126,49.559,49.559,0,0,0,7.73,23.568,50.091,50.091,0,0,0,17.664,16.653,100.088,100.088,0,0,0,34.139-1.595,99.314,99.314,0,0,0,30.725-12.936,49.754,49.754,0,0,0,7.309-15.01,49.749,49.749,0,0,0,1.866-17.227A49.65,49.65,0,0,0,1116.078-4768.936Zm-36.559-19.147a56.548,56.548,0,0,1,41.1,13.957,56.569,56.569,0,0,1,19.215,38.951,56.583,56.583,0,0,1-2.138,19.579,56.694,56.694,0,0,1-8.74,17.691,3.437,3.437,0,0,1-1.073.958,106.38,106.38,0,0,1-33.33,14.108,107.013,107.013,0,0,1-37.114,1.652,3.418,3.418,0,0,1-1.48-.537,56.963,56.963,0,0,1-20.536-19.176,56.5,56.5,0,0,1-8.811-26.865,56.541,56.541,0,0,1,13.955-41.1,56.577,56.577,0,0,1,38.95-19.216h0" transform="translate(-1011.321 4788.207)" fill="#3f2a56"/>
    <path id="path136" d="M1149.788-4714.587a53.279,53.279,0,0,1,56.653,49.675,53.051,53.051,0,0,1-10.215,35.012c-20.69,13.1-42.87,18.432-68.326,15.328a53.238,53.238,0,0,1-27.786-43.361,53.279,53.279,0,0,1,49.674-56.654h0" transform="translate(-1081.374 4718.158)" fill="#eee" fill-rule="evenodd"/>
    <path id="path138" d="M3422.312-1097.079a28.437,28.437,0,0,1-5.948,9.388c.9.831,1.638,1.509,2.537,2.339,2.643-2.708,5.372-6.216,5.453-10.842.032-1.859-.568-4.447-2.042-.885h0" transform="translate(-3288.873 1272.254)" fill="#3f2a56" fill-rule="evenodd"/>
    <path id="path140" d="M2460.857-1293.02a60.119,60.119,0,0,1-17,3.214c-5.185.34-3.578,1.891-.22,2.619,3.253.7,8.573,1.484,9.705,1.276a60.246,60.246,0,0,0,8.476-4.78c2.538-1.724,3.062-3.774-.965-2.329h0" transform="translate(-2358.899 1457.758)" fill="#3f2a56" fill-rule="evenodd"/>
    <path id="path142" d="M1908.746-2359.326l.507.01a124.282,124.282,0,0,0,18.516-1.293,70.838,70.838,0,0,0,16.99-5.1,10.757,10.757,0,0,1,5.956-1.056,5.7,5.7,0,0,1,4.548,3.724,60.942,60.942,0,0,1,3.15,11.73,93.912,93.912,0,0,1,1.473,13.944v.082a8.4,8.4,0,0,1-1.262,4.464,9.088,9.088,0,0,1-3.29,3.049l0,0-.009,0c-5.261,2.975-12.014,4.99-19.052,6.2a105.328,105.328,0,0,1-23.84,1.282,9.191,9.191,0,0,1-5.028-1.553,8.286,8.286,0,0,1-2.938-4.4,71.249,71.249,0,0,1-2.668-11.609,82.639,82.639,0,0,1-.933-12.421l.007-.367a6.55,6.55,0,0,1,2.578-5.116A8.518,8.518,0,0,1,1908.746-2359.326Zm.267,5.986-.291-.01a2.824,2.824,0,0,0-1.643.346.826.826,0,0,0-.235.641l-.007.108a76.772,76.772,0,0,0,.886,11.531,65.274,65.274,0,0,0,2.41,10.6,2.892,2.892,0,0,0,.782,1.424,3.893,3.893,0,0,0,1.888.429,99.131,99.131,0,0,0,22.458-1.212c6.442-1.107,12.53-2.9,17.122-5.492l0-.005a3.24,3.24,0,0,0,1.181-1.035,2.508,2.508,0,0,0,.346-1.3,87.752,87.752,0,0,0-1.378-12.945,54.876,54.876,0,0,0-2.823-10.535c-.021-.05.057-.062.022-.067a5.472,5.472,0,0,0-2.606.657,76.519,76.519,0,0,1-18.394,5.5,130.381,130.381,0,0,1-19.541,1.366h-.176" transform="translate(-1844.597 2480.667)" fill="#3f2a56"/>
    <path id="path144" d="M1969.74-2295.646c-3.2-.158-5.286,1.23-5.3,4.059a78.693,78.693,0,0,0,3.449,23.081c.916,2.761,2.271,3.7,5.318,3.9,12.791.84,30.538-1.044,41.24-7.095a5.461,5.461,0,0,0,3.04-4.947c-.114-6.437-1.611-17.735-4.412-24.6-.873-2.139-2.981-2.571-6.544-1.038-12.774,5.493-22.142,6.438-36.786,6.634h0" transform="translate(-1905.184 2419.988)" fill="#fff" fill-rule="evenodd"/>
    <path id="path146" d="M2012.173-2236.347a8.322,8.322,0,0,0,2.567.5c12.791.838,30.538-1.046,41.242-7.1a5.46,5.46,0,0,0,3.039-4.947c-.114-6.438-1.611-17.734-4.412-24.6l-.026-.062c-.894-1.118-2.582.009-4.47.821-12.774,5.492-22.142,6.437-36.786,6.633-3.2-.157-5.285,1.231-5.3,4.059a78.662,78.662,0,0,0,3.449,23.082,8.21,8.21,0,0,0,.7,1.6h0" transform="translate(-1946.721 2391.229)" fill="#bcbcbc" fill-rule="evenodd"/>
    <path id="path148" d="M2576.9-2104.572a11.061,11.061,0,0,1-7.134,4.609,11.063,11.063,0,0,1-8.3-1.786,11.063,11.063,0,0,1-4.61-7.133,11.069,11.069,0,0,1,1.786-8.305,11.059,11.059,0,0,1,6.931-4.568,2.1,2.1,0,0,1,.4-.074,11.06,11.06,0,0,1,8.1,1.821,11.058,11.058,0,0,1,4.569,6.93,2.151,2.151,0,0,1,.074.4A11.061,11.061,0,0,1,2576.9-2104.572Zm-7.928.277a6.675,6.675,0,0,0,4.3-2.779,6.675,6.675,0,0,0,1.077-5.008v-.008a6.676,6.676,0,0,0-2.779-4.3,6.668,6.668,0,0,0-5.006-1.077h-.008a6.673,6.673,0,0,0-4.3,2.778,6.674,6.674,0,0,0-1.077,5.007,6.673,6.673,0,0,0,2.78,4.3,6.668,6.668,0,0,0,5.006,1.078h0" transform="translate(-2469.579 2247.29)" fill="#3f2a56"/>
    <path id="path150" d="M2614.024-2057.477a8.9,8.9,0,0,0,7.151-10.349,8.9,8.9,0,0,0-10.35-7.151,8.9,8.9,0,0,0-7.15,10.35,8.9,8.9,0,0,0,10.35,7.15h0" transform="translate(-2514.239 2202.637)" fill="#ffe900" fill-rule="evenodd"/>
    <path id="path152" d="M2658.971-1989.7a7.381,7.381,0,0,1-6.051,7.379,7.38,7.38,0,0,1-8.271-4.761,7.38,7.38,0,0,1,6.051-7.379,7.381,7.381,0,0,1,8.271,4.761h0" transform="translate(-2553.427 2125.879)" fill="#cfbd00" fill-rule="evenodd"/>
    <path id="path154" d="M2089.8-1788.618l-11.847.928a4.817,4.817,0,0,1-3.509-1.148,4.816,4.816,0,0,1-1.662-3.123,2.167,2.167,0,0,1-.025-.289,4.811,4.811,0,0,1,1.157-3.38,4.822,4.822,0,0,1,3.121-1.663,2.236,2.236,0,0,1,.273-.024l11.754-.921a4.8,4.8,0,0,1,3.5,1.148,4.822,4.822,0,0,1,1.663,3.121,2.444,2.444,0,0,1,.025.3,4.809,4.809,0,0,1-1.157,3.366,4.81,4.81,0,0,1-3.284,1.679Zm-12.138-3.476,11.8-.924a.419.419,0,0,0,.282-.144.422.422,0,0,0,.1-.307.407.407,0,0,0-.143-.273.425.425,0,0,0-.307-.1l-11.856.929a.4.4,0,0,0-.273.142.411.411,0,0,0-.1.3l0,.028a.4.4,0,0,0,.14.255.412.412,0,0,0,.3.1l.054,0h0" transform="translate(-2008.407 1938.779)" fill="#3f2a56"/>
    <path id="path156" d="M2122.538-1745.143l11.856-.929a2.625,2.625,0,0,0,2.405-2.813h0a2.626,2.626,0,0,0-2.814-2.4l-11.856.929a2.624,2.624,0,0,0-2.4,2.813h0a2.625,2.625,0,0,0,2.814,2.405h0" transform="translate(-2053.166 1894.033)" fill="#ffe900" fill-rule="evenodd"/>
    <path id="path158" d="M2169.476-1724l-9.809.768c-2.45.192-2.237,2.916.213,2.724l9.81-.769c2.449-.192,2.236-2.915-.214-2.723h0" transform="translate(-2089.587 1868.03)" fill="#cfbd00" fill-rule="evenodd"/>
    <path id="path160" d="M2071.492-2031.337l-11.856.928a4.8,4.8,0,0,1-3.5-1.148,4.811,4.811,0,0,1-1.667-3.152,2.165,2.165,0,0,1-.021-.26,4.819,4.819,0,0,1,1.157-3.381,4.816,4.816,0,0,1,3.122-1.662,2.311,2.311,0,0,1,.272-.025l11.755-.92a4.8,4.8,0,0,1,3.5,1.149,4.8,4.8,0,0,1,1.666,3.151,2.357,2.357,0,0,1,.022.274,4.816,4.816,0,0,1-1.157,3.367,4.81,4.81,0,0,1-3.285,1.679Zm-12.183-3.472,11.847-.927a.409.409,0,0,0,.282-.144.416.416,0,0,0,.1-.3.417.417,0,0,0-.143-.282.423.423,0,0,0-.306-.1l-11.856.929a.4.4,0,0,0-.272.142.413.413,0,0,0-.1.3v.006a.416.416,0,0,0,.142.277.42.42,0,0,0,.308.1h0" transform="translate(-1990.96 2170.09)" fill="#3f2a56"/>
    <path id="path162" d="M2104.231-1987.862l11.856-.929a2.625,2.625,0,0,0,2.405-2.814h0a2.625,2.625,0,0,0-2.814-2.4l-11.855.928a2.626,2.626,0,0,0-2.406,2.814h0a2.625,2.625,0,0,0,2.813,2.405h0" transform="translate(-2035.72 2125.344)" fill="#ffe900" fill-rule="evenodd"/>
    <path id="path164" d="M2150.7-1963.738l-9.81.769c-2.449.191-2.236,2.915.214,2.723l9.809-.768c2.45-.192,2.236-2.915-.213-2.724h0" transform="translate(-2071.688 2096.496)" fill="#cfbd00" fill-rule="evenodd" opacity="0.7"/>
    <path id="path166" d="M3377.185-3133.039a1.379,1.379,0,0,1,1.854-.6,1.38,1.38,0,0,1,.6,1.855,51.149,51.149,0,0,1-10.181,13.814,66.506,66.506,0,0,1-14.216,10.191,1.381,1.381,0,0,1-1.875-.545,1.381,1.381,0,0,1,.546-1.876,63.893,63.893,0,0,0,13.632-9.76,48.42,48.42,0,0,0,9.641-13.078h0" transform="translate(-3228.672 3211.548)" fill="#3f2a56"/>
    <path id="path186" d="M3803.177-3363.192a2.942,2.942,0,0,0-2.138-.72,2.916,2.916,0,0,0-2.008.99,2.939,2.939,0,0,0-.721,2.136,2.926,2.926,0,0,0,.99,2.01,2.941,2.941,0,0,0,2.137.72,2.916,2.916,0,0,0,2.008-.989,2.934,2.934,0,0,0,.721-2.137A2.921,2.921,0,0,0,3803.177-3363.192Zm-2.4-4.856a7.052,7.052,0,0,1,5.121,1.742,7.072,7.072,0,0,1,2.4,4.865,7.052,7.052,0,0,1-1.742,5.122,7.068,7.068,0,0,1-4.865,2.4,7.047,7.047,0,0,1-5.121-1.743,7.058,7.058,0,0,1-2.4-4.863,7.053,7.053,0,0,1,1.742-5.123,7.07,7.07,0,0,1,4.865-2.4h0" transform="translate(-3648.91 3434.81)" fill="#2b1853"/>
    <path id="path188" d="M3842.931-3323.96a5,5,0,0,1,5.323,4.668,5.008,5.008,0,0,1-4.668,5.324,5.008,5.008,0,0,1-5.324-4.669,5.007,5.007,0,0,1,4.669-5.323h0" transform="translate(-3690.93 3392.789)" fill="#ffe900" fill-rule="evenodd"/>
    <path id="path190" d="M1260.981-4573.678c5.022.611,11.617,4.362,15.337,6.534a41.161,41.161,0,0,1,14.039-4.79,39.578,39.578,0,0,1,14.562-.038c2.809-3.27,7.8-8.942,12.333-11.153,3.97-1.936,7.57-1.711,9.809,2.88a44.272,44.272,0,0,1,3.512,11.115,44.113,44.113,0,0,1,.767,10.261c9.229,10.6,14.154,20.315,15.6,28.956a29.406,29.406,0,0,1-1.349,15.474,31.357,31.357,0,0,1-8.722,12.322c-7.658,6.811-19.079,11.5-32.632,13.769-13.293,2.422-25.54,1.766-35.01-2.174a31.744,31.744,0,0,1-12.259-8.737,29.753,29.753,0,0,1-6.482-14.087c-1.6-8.727-.2-19.639,5.113-32.811a43.86,43.86,0,0,1-2.639-9.946,44.217,44.217,0,0,1-.3-11.639C1253.276-4572.821,1256.6-4574.21,1260.981-4573.678Zm13.9,12.167-.864-.5c-3.243-1.9-9.555-5.593-13.689-6.095-1.136-.138-1.982.089-2.1,1.023a38.654,38.654,0,0,0,.281,10.148,35.625,35.625,0,0,0,2.656,9.534,2.794,2.794,0,0,1,.06,2.279l.006,0c-5.249,12.619-6.692,22.828-5.24,30.765a24.234,24.234,0,0,0,5.255,11.477,26.214,26.214,0,0,0,10.132,7.181c8.478,3.525,19.641,4.076,31.9,1.834l.044-.009c12.523-2.1,22.966-6.333,29.825-12.434a25.807,25.807,0,0,0,7.21-10.106,23.909,23.909,0,0,0,1.064-12.578c-1.318-7.875-6.059-16.937-15.064-27.062a2.8,2.8,0,0,1-.687-2.218,35.692,35.692,0,0,0-.594-9.85,38.522,38.522,0,0,0-3.052-9.668c-.414-.85-1.285-.791-2.309-.292-3.745,1.827-8.508,7.384-10.955,10.238l-.769.893a2.8,2.8,0,0,1-3.057.805l0,.006c-3.239-1.159-8.449-1.142-13.647-.269s-10.241,2.579-13.146,4.8a2.8,2.8,0,0,1-3.256.1h0" transform="translate(-1224.197 4593.86)" fill="#3f2a56"/>
    <path id="path192" d="M1333.142-4504.629c-4.485-2.58-19.934-12.269-20.99-3.576-.9,7.43.919,16.469,3.2,21.219-18.626,44.772,8.974,61.7,45.134,55.083,36.876-6.173,56.894-30.57,24.668-66.8.6-5.235-.625-14.372-3.906-21.1-3.838-7.87-15.275,6.331-18.671,10.235-7.367-2.638-22.876-.062-29.435,4.943h0" transform="translate(-1280.906 4534.649)" fill="#fea726" fill-rule="evenodd"/>
    <path id="path196" d="M1368.65-4230.078c-.862,7.1,1.518,14.386,3.833,19.2-17.493,42.049,10.861,57.125,39.4,54.79-27.279-5.136-42.505-23.094-32.869-55.052.308-1.02.25-.705-.386-1.575-3.029-4.143-4.247-8.937-6.349-15.874-1.032-3.406-3.078-6.014-3.626-1.494h0" transform="translate(-1335.926 4258.61)" fill="#de791b" fill-rule="evenodd"/>
    <path id="path198" d="M1368.7-3307.5c13.439,30.828,86.192,18.337,88.988-14.733a23.131,23.131,0,0,0-18.118,4.052c-2.9,2.205-2.211,1.048-5.229-1.519-5.76-4.9-12.054-7.347-22.968-5.514s-16.063,6.2-19.908,12.715c-2.014,3.411-.984,4.277-4.447,3.142a24.35,24.35,0,0,0-18.318,1.858h0" transform="translate(-1337.451 3394.555)" fill="#fff" fill-rule="evenodd"/>
    <path id="path200" d="M1448.965-2999.816a21.571,21.571,0,0,0-10.609,1.431c6.161,11.535,20.184,17.129,35.319,17.126,5.53,0,4.025-1.135-1.349-2.71-10.775-3.158-18.447-7.834-23.361-15.847h0" transform="translate(-1403.83 3084.015)" fill="#c3d3f0" fill-rule="evenodd"/>
    <path id="path202" d="M2128.538-3355.01c-1.006,2.863-3.506,4.617-6.737,6.373-3.627-.6-6.562-1.446-8.447-3.824-3.925-4.949,17.276-8.509,15.184-2.549h0" transform="translate(-2046.64 3425.341)" fill="#3f2a56" fill-rule="evenodd"/>
    <path id="path204" d="M2131.821-3056.58q4.39-3.021,8.782-6.039l10.271,2.84c.705,4.2-2.22,8.213-8.246,9.224s-10.1-1.823-10.807-6.025h0" transform="translate(-2064.702 3143.721)" fill="#3f2a56" fill-rule="evenodd"/>
    <path id="path206" d="M2223.948-2955.959a8.446,8.446,0,0,1-5.9,3.583,8.445,8.445,0,0,1-6.746-1.459,8.441,8.441,0,0,1,5.9-3.583,8.443,8.443,0,0,1,6.747,1.459h0" transform="translate(-2140.447 3043.61)" fill="#ff6b81" fill-rule="evenodd"/>
    <path id="path208" d="M2018.942-3206.683c-1.361,3.88.92,5.926,4.637,4.58,2.166-.784,4.211-2.539,4.751-4.512l-.974-5.8,2.885-.484,1.02,6.076.043.256-.054.263c-.638,3.07-3.587,5.762-6.687,6.885-5.752,2.079-10.6-2.478-8.253-7.848.476-1.087,1.374-1.35,1.988-.927a1.468,1.468,0,0,1,.645,1.509h0" transform="translate(-1954.043 3286.937)" fill="#3f2a56"/>
    <path id="path210" d="M1759.419-3797.525c-3.228,1.9-3.106,5.206.417,4.613a14.8,14.8,0,0,1,6.559.347c2.738.754,3.75-1.843,2.948-3.9-1.44-3.7-7.711-2.366-9.924-1.061h0" transform="translate(-1707.585 3845.369)" fill="#fff" fill-rule="evenodd"/>
    <path id="path212" d="M2408.888-3919.308c3.729.37,5.007,3.417,1.562,4.361a14.813,14.813,0,0,0-5.806,3.073c-2.167,1.836-4.177-.1-4.314-2.3-.247-3.958,6-5.389,8.558-5.137h0" transform="translate(-2320.584 3960.173)" fill="#fff" fill-rule="evenodd"/>
    <path id="path214" d="M2277.863-3210.5c2.554,3.223,1.066,5.9-2.887,5.843-2.3-.034-4.81-1.024-5.963-2.713l-.974-5.8-2.884.484,1.021,6.077.044.257.137.23c1.605,2.693,5.271,4.275,8.569,4.323,6.115.086,9.208-5.8,5.237-10.115-.8-.871-1.739-.826-2.181-.225a1.469,1.469,0,0,0-.117,1.637h0" transform="translate(-2191.768 3287.192)" fill="#3f2a56"/>
    <path id="path216" d="M1483.81-4149.187a47.947,47.947,0,0,0-8.149-2.681c-1.489-.362-1.518-.213-1.432,1.3a34.3,34.3,0,0,0,1.839,9.218c.608,1.948.546,2.611,1.756,1.1a43.333,43.333,0,0,1,7.1-6.979c1.491-1.17.789-1.152-1.115-1.962h0" transform="translate(-1437.99 4181.934)" fill="#3f2a56" fill-rule="evenodd"/>
    <path id="path218" d="M2559.273-4360.085a47.9,47.9,0,0,1,6.827-5.194c1.29-.828,1.365-.7,1.78.762a34.3,34.3,0,0,1,1.272,9.313c.062,2.039.337,2.647-1.3,1.615a43.234,43.234,0,0,0-8.99-4.276c-1.792-.62-1.122-.832.412-2.22h0" transform="translate(-2470.648 4385.642)" fill="#3f2a56" fill-rule="evenodd"/>
    <path id="path220" d="M1715.41-3588.66c3.75-.63,7.185,2.511,7.671,7.016s-2.161,8.669-5.913,9.3-7.185-2.511-7.671-7.018,2.161-8.667,5.912-9.3h0" transform="translate(-1662.173 3645.115)" fill="#3f2a56" fill-rule="evenodd"/>
    <path id="path222" d="M1846.295-3524.241a2.544,2.544,0,0,1,2.745,2.511,2.931,2.931,0,0,1-2.116,3.327,2.544,2.544,0,0,1-2.745-2.511,2.931,2.931,0,0,1,2.115-3.327h0" transform="translate(-1790.56 3583.675)" fill="#fff" fill-rule="evenodd"/>
    <path id="path224" d="M2499.5-3717.745c-3.751.63-5.971,4.722-4.959,9.138s4.875,7.487,8.626,6.857,5.97-4.72,4.958-9.137-4.875-7.487-8.625-6.857h0" transform="translate(-2410.14 3768.134)" fill="#3f2a56" fill-rule="evenodd"/>
    <path id="path226" d="M2537.713-3639.413a2.546,2.546,0,0,0-1.775,3.271,2.932,2.932,0,0,0,3.087,2.453,2.544,2.544,0,0,0,1.774-3.269,2.932,2.932,0,0,0-3.086-2.455h0" transform="translate(-2449.743 3693.434)" fill="#fff" fill-rule="evenodd"/>
  </g>
</svg>
